<svg width="20" height="35" viewBox="0 0 20 35" fill="none" xmlns="http://www.w3.org/2000/svg">
<path d="M1.13416 24.663C1.13416 23.4094 1.69042 21.2952 2.5723 18.7633C3.44595 16.2551 4.61313 13.4071 5.78363 10.72C6.95355 8.03423 8.12387 5.51584 9.00193 3.66846C9.41511 2.79916 9.76341 2.07879 10.0163 1.55988C10.2692 2.07879 10.6175 2.79916 11.0307 3.66846C11.9087 5.51584 13.0791 8.03423 14.249 10.72C15.4195 13.4071 16.5867 16.2551 17.4603 18.7633C18.3422 21.2952 18.8984 23.4094 18.8984 24.663C18.8984 29.8038 14.9027 33.936 10.0163 33.936C5.12987 33.936 1.13416 29.8038 1.13416 24.663Z" fill="white" stroke="white"/>
</svg>
