<svg width="227" height="227" viewBox="0 0 227 227" fill="none" xmlns="http://www.w3.org/2000/svg">
<circle cx="112.07" cy="113.072" r="91.5584" stroke="white"/>
<circle cx="113.072" cy="113.072" r="112.572" stroke="white"/>
<circle cx="112.07" cy="113.072" r="82.5527" stroke="white"/>
<circle cx="112.071" cy="113.072" r="59.5381" stroke="white"/>
<line x1="112.572" y1="21.0132" x2="112.572" y2="40.0252" stroke="white"/>
<line x1="175.878" y1="46.7118" x2="162.775" y2="60.4877" stroke="white"/>
<line x1="178.835" y1="177.541" x2="165.059" y2="164.438" stroke="white"/>
<line x1="204.129" y1="110.069" x2="187.118" y2="110.069" stroke="white"/>
<line x1="112.572" y1="186.118" x2="112.572" y2="205.13" stroke="white"/>
<line x1="62.0908" y1="166.345" x2="48.988" y2="180.121" stroke="white"/>
<line x1="59.2023" y1="63.7539" x2="45.4264" y2="50.6511" stroke="white"/>
<line x1="37.0234" y1="110.069" x2="20.0126" y2="110.069" stroke="white"/>
<path d="M111.571 88.8766L115.39 102.259L115.523 102.724L115.992 102.606L129.491 99.2228L119.811 109.221L119.475 109.569L119.811 109.917L129.491 119.915L115.992 116.532L115.523 116.414L115.39 116.879L111.571 130.261L107.752 116.879L107.619 116.414L107.15 116.532L93.6508 119.915L103.33 109.917L103.667 109.569L103.33 109.221L93.6508 99.2228L107.15 102.606L107.619 102.724L107.752 102.259L111.571 88.8766Z" stroke="white"/>
<path d="M117.767 162.729C117.767 162.414 117.718 162.136 117.619 161.895C117.526 161.647 117.359 161.424 117.118 161.227C116.883 161.029 116.555 160.84 116.134 160.661C115.72 160.481 115.194 160.299 114.557 160.113C113.889 159.915 113.286 159.696 112.748 159.455C112.21 159.207 111.749 158.926 111.366 158.61C110.982 158.295 110.688 157.933 110.484 157.525C110.28 157.117 110.178 156.65 110.178 156.124C110.178 155.598 110.286 155.113 110.503 154.667C110.719 154.222 111.029 153.836 111.431 153.508C111.839 153.174 112.324 152.914 112.887 152.729C113.45 152.543 114.078 152.45 114.771 152.45C115.785 152.45 116.645 152.645 117.35 153.035C118.061 153.418 118.602 153.922 118.973 154.547C119.344 155.165 119.53 155.827 119.53 156.532H117.749C117.749 156.025 117.64 155.577 117.424 155.187C117.207 154.791 116.88 154.482 116.44 154.259C116.001 154.03 115.445 153.916 114.771 153.916C114.133 153.916 113.608 154.012 113.193 154.204C112.779 154.395 112.47 154.655 112.266 154.983C112.068 155.311 111.969 155.685 111.969 156.105C111.969 156.39 112.028 156.65 112.145 156.885C112.269 157.114 112.457 157.327 112.711 157.525C112.971 157.723 113.299 157.905 113.694 158.072C114.096 158.239 114.576 158.4 115.132 158.555C115.899 158.771 116.561 159.012 117.118 159.278C117.674 159.544 118.132 159.844 118.491 160.178C118.856 160.506 119.125 160.88 119.298 161.301C119.477 161.715 119.567 162.185 119.567 162.711C119.567 163.261 119.456 163.759 119.233 164.205C119.01 164.65 118.692 165.03 118.277 165.346C117.863 165.661 117.365 165.905 116.784 166.079C116.208 166.246 115.565 166.329 114.854 166.329C114.229 166.329 113.614 166.243 113.008 166.069C112.408 165.896 111.861 165.636 111.366 165.29C110.877 164.944 110.484 164.517 110.188 164.01C109.897 163.496 109.751 162.903 109.751 162.229H111.533C111.533 162.692 111.622 163.091 111.802 163.425C111.981 163.753 112.225 164.025 112.535 164.242C112.85 164.458 113.206 164.619 113.602 164.724C114.004 164.823 114.421 164.873 114.854 164.873C115.479 164.873 116.007 164.786 116.44 164.613C116.873 164.44 117.201 164.192 117.424 163.871C117.653 163.549 117.767 163.169 117.767 162.729Z" fill="white"/>
<path d="M166.149 117.687V119.144H158.997V117.687H166.149ZM159.358 105.636V119.144H157.568V105.636H159.358ZM165.203 111.443V112.9H158.997V111.443H165.203ZM166.057 105.636V107.102H158.997V105.636H166.057Z" fill="white"/>
<path d="M63.1211 115.062L65.8022 105.636H67.1011L66.3496 109.3L63.4644 119.144H62.1748L63.1211 115.062ZM60.3472 105.636L62.481 114.876L63.1211 119.144H61.8408L58.5659 105.636H60.3472ZM70.5708 114.867L72.6582 105.636H74.4487L71.1831 119.144H69.9028L70.5708 114.867ZM67.2959 105.636L69.9028 115.062L70.8491 119.144H69.5596L66.7764 109.3L66.0156 105.636H67.2959Z" fill="white"/>
<path d="M116.958 58.6357V72.1436H115.159L108.358 61.7251V72.1436H106.568V58.6357H108.358L115.187 69.082V58.6357H116.958Z" fill="white"/>
<path d="M145.958 76.6357V90.1436H144.159L137.358 79.7251V90.1436H135.568V76.6357H137.358L144.187 87.082V76.6357H145.958ZM157.713 88.687V90.1436H150.56V88.687H157.713ZM150.922 76.6357V90.1436H149.131V76.6357H150.922ZM156.767 82.4434V83.8999H150.56V82.4434H156.767ZM157.62 76.6357V78.1016H150.56V76.6357H157.62Z" fill="white"/>
<path d="M79.7671 148.729C79.7671 148.414 79.7176 148.136 79.6187 147.895C79.5259 147.647 79.3589 147.424 79.1177 147.227C78.8826 147.029 78.5549 146.84 78.1343 146.661C77.7199 146.481 77.1942 146.299 76.5571 146.113C75.8892 145.915 75.2861 145.696 74.748 145.455C74.21 145.207 73.7492 144.926 73.3657 144.61C72.9823 144.295 72.6885 143.933 72.4844 143.525C72.2803 143.117 72.1782 142.65 72.1782 142.124C72.1782 141.598 72.2865 141.113 72.5029 140.667C72.7194 140.222 73.0286 139.836 73.4307 139.508C73.8389 139.174 74.3244 138.914 74.8872 138.729C75.45 138.543 76.0778 138.45 76.7705 138.45C77.7848 138.45 78.6445 138.645 79.3496 139.035C80.0609 139.418 80.6021 139.922 80.9731 140.547C81.3442 141.165 81.5298 141.827 81.5298 142.532H79.7485C79.7485 142.025 79.6403 141.577 79.4238 141.187C79.2074 140.791 78.8796 140.482 78.4404 140.259C78.0013 140.03 77.4447 139.916 76.7705 139.916C76.1335 139.916 75.6077 140.012 75.1934 140.204C74.779 140.395 74.4697 140.655 74.2656 140.983C74.0677 141.311 73.9688 141.685 73.9688 142.105C73.9688 142.39 74.0275 142.65 74.145 142.885C74.2687 143.114 74.4574 143.327 74.7109 143.525C74.9707 143.723 75.2985 143.905 75.6943 144.072C76.0964 144.239 76.5757 144.4 77.1323 144.555C77.8993 144.771 78.561 145.012 79.1177 145.278C79.6743 145.544 80.132 145.844 80.4907 146.178C80.8556 146.506 81.1247 146.88 81.2979 147.301C81.4772 147.715 81.5669 148.185 81.5669 148.711C81.5669 149.261 81.4556 149.759 81.2329 150.205C81.0103 150.65 80.6917 151.03 80.2773 151.346C79.863 151.661 79.3651 151.905 78.7837 152.079C78.2085 152.246 77.5653 152.329 76.854 152.329C76.2293 152.329 75.6139 152.243 75.0078 152.069C74.4079 151.896 73.8605 151.636 73.3657 151.29C72.8771 150.944 72.4844 150.517 72.1875 150.01C71.8968 149.496 71.7515 148.903 71.7515 148.229H73.5327C73.5327 148.692 73.6224 149.091 73.8018 149.425C73.9811 149.753 74.2254 150.025 74.5347 150.242C74.8501 150.458 75.2057 150.619 75.6016 150.724C76.0036 150.823 76.4211 150.873 76.854 150.873C77.4787 150.873 78.0075 150.786 78.4404 150.613C78.8734 150.44 79.2012 150.192 79.4238 149.871C79.6527 149.549 79.7671 149.169 79.7671 148.729ZM87.4023 148.062L90.0835 138.636H91.3823L90.6309 142.3L87.7456 152.144H86.4561L87.4023 148.062ZM84.6284 138.636L86.7622 147.876L87.4023 152.144H86.1221L82.8472 138.636H84.6284ZM94.8521 147.867L96.9395 138.636H98.73L95.4644 152.144H94.1841L94.8521 147.867ZM91.5771 138.636L94.1841 148.062L95.1304 152.144H93.8408L91.0576 142.3L90.2969 138.636H91.5771Z" fill="white"/>
<path d="M144.767 146.729C144.767 146.414 144.718 146.136 144.619 145.895C144.526 145.647 144.359 145.424 144.118 145.227C143.883 145.029 143.555 144.84 143.134 144.661C142.72 144.481 142.194 144.299 141.557 144.113C140.889 143.915 140.286 143.696 139.748 143.455C139.21 143.207 138.749 142.926 138.366 142.61C137.982 142.295 137.688 141.933 137.484 141.525C137.28 141.117 137.178 140.65 137.178 140.124C137.178 139.598 137.286 139.113 137.503 138.667C137.719 138.222 138.029 137.836 138.431 137.508C138.839 137.174 139.324 136.914 139.887 136.729C140.45 136.543 141.078 136.45 141.771 136.45C142.785 136.45 143.645 136.645 144.35 137.035C145.061 137.418 145.602 137.922 145.973 138.547C146.344 139.165 146.53 139.827 146.53 140.532H144.749C144.749 140.025 144.64 139.577 144.424 139.187C144.207 138.791 143.88 138.482 143.44 138.259C143.001 138.03 142.445 137.916 141.771 137.916C141.133 137.916 140.608 138.012 140.193 138.204C139.779 138.395 139.47 138.655 139.266 138.983C139.068 139.311 138.969 139.685 138.969 140.105C138.969 140.39 139.028 140.65 139.145 140.885C139.269 141.114 139.457 141.327 139.711 141.525C139.971 141.723 140.299 141.905 140.694 142.072C141.096 142.239 141.576 142.4 142.132 142.555C142.899 142.771 143.561 143.012 144.118 143.278C144.674 143.544 145.132 143.844 145.491 144.178C145.856 144.506 146.125 144.88 146.298 145.301C146.477 145.715 146.567 146.185 146.567 146.711C146.567 147.261 146.456 147.759 146.233 148.205C146.01 148.65 145.692 149.03 145.277 149.346C144.863 149.661 144.365 149.905 143.784 150.079C143.208 150.246 142.565 150.329 141.854 150.329C141.229 150.329 140.614 150.243 140.008 150.069C139.408 149.896 138.861 149.636 138.366 149.29C137.877 148.944 137.484 148.517 137.188 148.01C136.897 147.496 136.751 146.903 136.751 146.229H138.533C138.533 146.692 138.622 147.091 138.802 147.425C138.981 147.753 139.225 148.025 139.535 148.242C139.85 148.458 140.206 148.619 140.602 148.724C141.004 148.823 141.421 148.873 141.854 148.873C142.479 148.873 143.007 148.786 143.44 148.613C143.873 148.44 144.201 148.192 144.424 147.871C144.653 147.549 144.767 147.169 144.767 146.729ZM157.431 148.687V150.144H150.278V148.687H157.431ZM150.64 136.636V150.144H148.849V136.636H150.64ZM156.484 142.443V143.9H150.278V142.443H156.484ZM157.338 136.636V138.102H150.278V136.636H157.338Z" fill="white"/>
<path d="M80.9585 76.6357V90.1436H79.1587L72.3584 79.7251V90.1436H70.5679V76.6357H72.3584L79.1865 87.082V76.6357H80.9585ZM87.6846 86.0615L90.3657 76.6357H91.6646L90.9131 80.3003L88.0278 90.1436H86.7383L87.6846 86.0615ZM84.9106 76.6357L87.0444 85.876L87.6846 90.1436H86.4043L83.1294 76.6357H84.9106ZM95.1343 85.8667L97.2217 76.6357H99.0122L95.7466 90.1436H94.4663L95.1343 85.8667ZM91.8594 76.6357L94.4663 86.0615L95.4126 90.1436H94.123L91.3398 80.3003L90.5791 76.6357H91.8594Z" fill="white"/>
</svg>
