<svg width="209" height="380" viewBox="0 0 209 380" fill="none" xmlns="http://www.w3.org/2000/svg">
<path fill-rule="evenodd" clip-rule="evenodd" d="M196.177 24.547C202.713 24.547 208.012 19.2482 208.012 12.7118C208.012 6.17546 202.713 0.876678 196.177 0.876678C189.64 0.876678 184.342 6.17546 184.342 12.7118C184.342 19.2482 189.64 24.547 196.177 24.547ZM196.177 25.4237C203.197 25.4237 208.889 19.7324 208.889 12.7118C208.889 5.69128 203.197 0 196.177 0C189.156 0 183.465 5.69128 183.465 12.7118C183.465 19.7324 189.156 25.4237 196.177 25.4237Z" fill="white"/>
<path fill-rule="evenodd" clip-rule="evenodd" d="M16.0218 208.65C18.4427 208.65 20.4052 206.687 20.4052 204.266C20.4052 201.846 18.4427 199.883 16.0218 199.883C13.6009 199.883 11.6384 201.846 11.6384 204.266C11.6384 206.687 13.6009 208.65 16.0218 208.65ZM16.0218 209.526C18.9268 209.526 21.2819 207.171 21.2819 204.266C21.2819 201.361 18.9268 199.006 16.0218 199.006C13.1167 199.006 10.7617 201.361 10.7617 204.266C10.7617 207.171 13.1167 209.526 16.0218 209.526Z" fill="white"/>
<path fill-rule="evenodd" clip-rule="evenodd" d="M18.6507 171.829C21.0716 171.829 23.0341 169.866 23.0341 167.445C23.0341 165.024 21.0716 163.062 18.6507 163.062C16.2298 163.062 14.2673 165.024 14.2673 167.445C14.2673 169.866 16.2298 171.829 18.6507 171.829ZM18.6507 172.705C21.5557 172.705 23.9108 170.35 23.9108 167.445C23.9108 164.54 21.5557 162.185 18.6507 162.185C15.7456 162.185 13.3906 164.54 13.3906 167.445C13.3906 170.35 15.7456 172.705 18.6507 172.705Z" fill="white"/>
<path fill-rule="evenodd" clip-rule="evenodd" d="M19.5296 138.514C21.9505 138.514 23.913 136.551 23.913 134.13C23.913 131.709 21.9505 129.747 19.5296 129.747C17.1087 129.747 15.1462 131.709 15.1462 134.13C15.1462 136.551 17.1087 138.514 19.5296 138.514ZM19.5296 139.39C22.4347 139.39 24.7897 137.035 24.7897 134.13C24.7897 131.225 22.4347 128.87 19.5296 128.87C16.6245 128.87 14.2695 131.225 14.2695 134.13C14.2695 137.035 16.6245 139.39 19.5296 139.39Z" fill="white"/>
<path fill-rule="evenodd" clip-rule="evenodd" d="M23.928 112.214C26.3489 112.214 28.3114 110.252 28.3114 107.831C28.3114 105.41 26.3489 103.447 23.928 103.447C21.5072 103.447 19.5446 105.41 19.5446 107.831C19.5446 110.252 21.5072 112.214 23.928 112.214ZM23.928 113.091C26.8331 113.091 29.1881 110.736 29.1881 107.831C29.1881 104.926 26.8331 102.571 23.928 102.571C21.023 102.571 18.668 104.926 18.668 107.831C18.668 110.736 21.023 113.091 23.928 113.091Z" fill="white"/>
<path fill-rule="evenodd" clip-rule="evenodd" d="M87.9124 60.4896C90.3333 60.4896 92.2958 58.5271 92.2958 56.1063C92.2958 53.6854 90.3333 51.7229 87.9124 51.7229C85.4915 51.7229 83.529 53.6854 83.529 56.1063C83.529 58.5271 85.4915 60.4896 87.9124 60.4896ZM87.9124 61.3663C90.8175 61.3663 93.1725 59.0113 93.1725 56.1063C93.1725 53.2012 90.8175 50.8462 87.9124 50.8462C85.0074 50.8462 82.6523 53.2012 82.6523 56.1063C82.6523 59.0113 85.0074 61.3663 87.9124 61.3663Z" fill="white"/>
<path fill-rule="evenodd" clip-rule="evenodd" d="M174.719 49.9696C177.14 49.9696 179.102 48.0071 179.102 45.5862C179.102 43.1654 177.14 41.2028 174.719 41.2028C172.298 41.2028 170.336 43.1654 170.336 45.5862C170.336 48.0071 172.298 49.9696 174.719 49.9696ZM174.719 50.8463C177.624 50.8463 179.979 48.4913 179.979 45.5862C179.979 42.6812 177.624 40.3262 174.719 40.3262C171.814 40.3262 169.459 42.6812 169.459 45.5862C169.459 48.4913 171.814 50.8463 174.719 50.8463Z" fill="white"/>
<path fill-rule="evenodd" clip-rule="evenodd" d="M194.745 13.1593L175.24 45.9624L34.7323 64.3466L20.4089 135.096V183.293L11.6383 239.425L3.75059 379.65L2 379.552L9.89254 239.24L18.6555 183.157V134.92L33.2624 62.7706L174.168 44.3343L193.238 12.2632L194.745 13.1593Z" fill="white"/>
<path fill-rule="evenodd" clip-rule="evenodd" d="M10.77 17.7991L4.72481 19.0304C4.35384 19.106 3.99187 18.8665 3.9163 18.4956L2.68496 12.4504C2.6094 12.0794 2.84887 11.7174 3.21983 11.6419C3.5908 11.5663 3.95278 11.8058 4.02834 12.1767L4.92938 16.6003L14.2984 2.43822L15.4418 3.19464L6.07277 17.3567L10.4964 16.4557C10.8673 16.3801 11.2293 16.6196 11.3049 16.9906C11.3804 17.3615 11.1409 17.7235 10.77 17.7991Z" fill="white"/>
</svg>
