<svg width="512" height="292" viewBox="0 0 512 292" fill="none" xmlns="http://www.w3.org/2000/svg">
<mask id="path-1-inside-1_395_7601" fill="white">
<path d="M24.7535 126.016C24.8161 125.05 24.8291 124.146 24.8916 123.181C25.0659 121.696 25.1784 120.161 26.417 119.122C26.6275 118.986 26.8504 118.961 27.0732 118.936C27.3952 118.788 27.3829 118.677 27.0363 118.602C26.7393 118.466 26.5537 118.317 26.3681 118.168C25.7994 117.103 23.5338 117.523 23.9932 115.555C24.9843 114.318 25.9755 113.08 26.9666 111.843C28.1184 111.039 29.53 110.545 29.4445 108.75C32.9136 104.42 36.3827 100.09 39.8517 95.7592C41.3364 96.9486 42.7592 98.0885 44.2439 99.2779C47.2635 100.58 48.1036 103.081 47.7672 106.163C47.9528 106.312 48.1507 106.572 48.3363 106.72C48.3103 108.528 51.5784 108.505 50.6484 110.807C50.6357 111.203 49.8927 111.624 50.7218 111.983C50.8087 111.748 50.8336 111.463 50.9204 111.228C51.1812 110.015 52.1098 109.743 53.1375 109.348C54.1157 109.014 55.6014 108.681 55.0703 106.935C54.8731 105.66 55.9258 104.98 56.5082 104.126C60.8276 105.454 62.9216 102.46 65.1022 99.7377C71.9353 99.829 72.1828 100.027 74.2584 106.057C74.3687 107.568 73.4271 108.743 73.0177 110.141C73.2648 110.847 72.992 111.441 72.5956 111.936C70.5517 113.853 68.7676 116.08 65.7839 116.636L65.8335 116.574C62.7753 117.475 60.2861 118.934 60.5311 122.685C60.5308 123.193 60.419 123.713 60.2577 124.294C60.0591 125.049 59.217 125.593 59.5382 126.46C59.7857 126.658 59.9713 126.807 60.2187 127.005C60.8869 127.439 61.4064 128.058 61.7153 128.814C61.9501 129.408 62.1354 130.064 62.2092 130.733C61.9853 132.28 62.5174 132.503 63.793 131.798C65.3279 131.911 66.144 133.174 67.3444 133.831C68.9777 134.835 70.8592 135.022 72.6539 135.444C73.347 135.593 73.9782 135.692 74.6714 135.841C75.9462 136.152 77.3574 136.165 78.6695 136.302C79.177 136.302 79.635 136.365 80.1425 136.365C81.2936 136.576 82.3706 136.627 83.5097 136.219C83.6707 136.145 83.9554 136.17 84.1782 136.145C83.9557 135.662 83.6707 136.145 83.4356 136.058C81.8753 136.738 80.5017 136.043 78.9918 135.646C78.6452 135.572 78.2987 135.497 77.9521 135.423C76.7887 135.1 75.5757 134.839 74.3624 135.086C73.8053 135.148 73.2978 135.147 72.8275 134.974C71.7136 134.589 70.5998 134.205 69.3991 134.055C69.0526 133.981 68.6937 133.795 68.3471 133.72C66.3672 132.642 65.118 131.032 64.7606 128.816C64.5507 127.937 64.3904 126.996 64.453 126.03C64.6526 123.753 68.1066 123.371 67.6999 120.71C68.3811 120.24 69.0745 119.881 69.7557 119.411C71.0309 119.214 72.0825 120.056 73.3081 119.921C74.558 120.516 75.7088 121.235 76.81 122.015C77.0574 122.214 77.2676 122.585 77.6142 122.66C77.4286 122.511 77.2925 122.301 77.2061 122.028C76.9467 121.211 76.7368 120.332 76.366 119.527C75.9337 118.165 75.6127 116.791 77.3958 116.086C79.1286 116.459 80.3655 117.958 81.9619 118.627C82.8898 119.371 81.9482 120.546 82.6038 121.376C82.6294 120.076 82.9767 119.135 84.3509 118.814C87.6064 119.188 87.8401 121.305 87.3182 124.238C87.7403 122.444 87.5185 120.946 87.5937 119.584C88.5849 118.347 89.8597 118.657 91.085 119.029C92.2361 119.241 92.8311 117.991 93.9081 118.041C95.6658 118.129 97.4858 117.759 99.2059 118.527C97.8447 117.945 96.4458 118.043 94.985 118.091C93.4255 117.756 91.828 118.609 90.2808 118.385C88.8204 117.926 87.1364 118.507 85.8746 117.293C84.0926 116.475 82.4838 115.694 81.7425 113.576C80.9766 111.236 81.559 110.382 83.9604 110.681C85.3965 110.41 86.3982 111.822 87.698 111.847C87.6362 111.798 87.7476 111.786 87.7476 111.786L87.5124 111.699C85.0243 111.635 85.6829 107.897 83.0957 107.957L83.1575 108.007C81.45 106.842 82.1568 105.072 81.9227 103.463C81.8612 102.906 82.3568 102.287 82.8271 102.461C85.1536 103.614 86.6656 100.966 88.7204 101.19C90.6517 100.807 92.496 101.168 94.3525 101.639C94.7486 101.652 95.157 101.776 95.4168 102.086C96.5422 103.597 97.1735 103.696 98.4367 102.88C100.009 102.819 101.68 102.635 103.078 103.552C104.861 103.862 105.132 105.298 105.564 106.66L105.503 106.611C106.219 109.52 108.346 111.428 110.264 113.472C110.163 115.626 108.912 117.569 109.269 119.785C110.221 121.766 109.626 123.523 108.152 124.983C108.411 126.308 107.506 127.31 107.072 128.486C106.936 128.783 106.799 129.08 106.614 129.438C106.143 130.28 105.436 131.035 104.842 131.777C104.693 131.962 104.619 132.309 104.792 132.346C105.188 132.359 105.498 132.099 105.82 131.951C107.045 131.815 107.838 131.333 107.455 129.909C107.48 129.117 107.629 128.424 108.001 127.706C108.596 126.964 109.24 126.16 110.255 126.668C111.208 127.127 110.885 128.29 110.81 129.144C110.996 129.293 111.243 129.491 111.379 129.702C111.713 131.187 113.111 132.104 113.555 133.578C114.569 135.101 115.907 133.938 116.996 134.1C116.415 132.924 115.041 133.245 114.237 132.6C113.878 132.414 113.68 132.154 113.42 131.845C112.555 130.643 112.989 129.468 113.423 128.292C113.77 126.844 112.917 125.754 112.386 124.516C112.808 122.213 112.203 119.799 113.368 117.584C114.075 116.322 114.212 114.502 116.638 115.024C118.891 115.508 117.949 117.191 118.356 118.33C118.393 119.172 117.712 119.642 117.39 120.298C118.368 119.457 119.532 118.764 119.83 117.378C119.905 117.031 120.165 116.833 120.549 116.735C122.493 115.956 124.498 115.227 126.443 114.449C128.015 113.373 128.426 110.959 130.629 110.49C131.112 110.268 131.608 110.157 132.09 109.934C134.171 108.351 135.621 106.668 135.412 103.759C135.327 101.964 135.984 99.7488 138.695 99.7878C143.932 99.2095 143.932 99.2095 143.459 103.096C143.893 101.921 143.956 100.447 144.724 99.2348C145.988 97.4036 148.056 97.2317 149.95 96.515C151.534 97.5807 153.59 96.2823 155.149 97.6327C155.494 99.2298 156.236 100.84 154.935 102.337C154.092 103.388 154.612 104.515 154.896 105.555C154.883 105.951 154.982 106.335 154.969 106.731C156.093 109.765 155.522 112.253 153.193 114.652C150.109 117.869 148.014 121.878 144.496 124.748L144.546 124.686C143.233 126.072 140.46 125.475 140.075 128.112C140 128.458 139.802 128.706 139.604 128.953C138.514 129.807 139.033 130.934 139.206 131.986C139.28 132.654 139.192 133.397 139.093 134.028C138.696 135.538 139.946 136.133 140.762 136.889C140.948 137.038 141.195 137.236 141.269 137.397C141.207 137.347 141.381 137.385 141.381 137.385C141.381 137.385 141.245 137.174 141.183 137.125C140.379 136.48 139.797 135.811 139.736 134.747C139.75 132.828 140.221 130.972 141.225 129.338C141.473 129.029 141.795 128.881 142.179 128.782C142.922 128.361 143.603 127.891 144.346 127.471C146.649 127.386 149.223 127.722 149.411 124.318C151.134 121.026 154.243 119.048 156.782 116.512C157.897 115.881 159.073 114.793 160.075 116.712C160.706 117.319 161.547 117.79 161.546 118.805C162.968 121.975 164.649 124.947 166.442 127.907L166.38 127.857C166.59 129.752 169.165 128.565 169.474 130.335C169.758 130.868 170.042 131.4 170.265 131.883C170.511 133.097 171.551 133.828 172.219 134.769C172.639 135.512 173.22 136.181 173.641 136.924C173.789 137.246 173.888 137.63 174.036 137.952C174.284 137.642 174.086 137.382 174 137.11C173.814 136.454 173.369 135.995 173.035 135.525C172.441 134.744 172.343 133.853 172.517 132.875L172.567 132.813C172.902 130.746 174.276 131.44 175.501 131.813C176.046 132.147 176.59 132.482 176.775 133.138C177.814 135.392 180.623 135.814 181.612 138.13L181.55 138.08C182.193 139.306 182.724 140.545 183.727 141.449C184.122 141.969 184.63 142.477 184.976 143.059C185.112 143.27 185.186 143.431 185.322 143.641C185.409 143.406 185.384 143.183 185.248 142.973C184.951 142.329 185.113 141.747 185.262 141.054C185.548 139.049 184.435 137.649 183.21 136.262C181.775 134.503 181.727 133.042 184.166 132.153C184.204 131.472 184.749 131.299 185.293 131.126C187.126 130.867 188.784 131.586 190.38 132.256C191.544 132.579 192.683 132.678 193.796 133.063C194.143 133.137 194.49 133.212 194.787 133.348C196.074 133.77 197.423 134.241 198.71 134.663C199.477 134.973 200.145 135.407 200.764 135.902C200.405 135.209 199.7 134.949 199.143 134.503C197.955 133.957 196.755 133.3 195.418 132.94C194.44 132.766 193.462 132.592 192.497 132.53C191.977 132.418 191.47 132.418 190.999 132.244C190.702 132.108 190.393 131.86 190.195 131.6C189.626 130.535 189.02 129.643 187.633 130.36C187.089 130.533 186.593 130.644 186.148 130.693C184.934 130.94 183.722 130.679 182.533 130.641C182.236 130.505 181.989 130.307 181.692 130.17C176.852 128.731 173.389 125.448 170.061 121.869C169.442 121.373 168.824 120.877 168.255 120.32C168.479 118.265 166.561 117.236 166.03 115.491C165.622 113.844 167.059 113.573 168.012 113.016C169.423 113.029 170.091 114.478 171.316 114.85C171.564 115.049 171.823 115.358 171.972 115.68C172.516 116.522 173.407 116.932 174.248 117.403C174.483 117.489 174.706 117.465 174.917 117.329C174.868 116.376 174.088 116.462 173.444 116.251C172.925 116.139 172.454 115.965 172.133 115.606C171.786 115.024 171.44 114.442 171.478 113.761C171.082 112.734 170.179 111.705 171.121 110.53C171.418 110.159 171.802 110.06 172.186 109.961C172.297 109.949 172.409 109.937 172.409 109.937C172.496 109.702 172.421 109.541 172.137 109.516C171.394 109.429 170.651 109.341 169.983 109.415C169.599 109.514 169.203 109.501 168.819 109.6C167.73 109.946 166.615 110.069 165.477 109.969L165.538 110.019C164.425 109.127 163.633 108.086 162.879 106.873L162.891 106.984C163.623 105.437 163.265 104.236 161.966 103.195C162.325 101.859 162.685 100.522 163.095 99.1236C164.358 98.3074 162.142 98.1573 162.799 97.4646C162.936 95.6449 163.618 94.1599 165.686 93.988C166.998 94.1251 168.235 94.6087 169.547 94.7458C170.809 95.4522 172.208 95.8617 173.607 96.2711C174.188 96.4325 174.758 96.4824 175.339 96.6437C177.431 97.2022 178.333 99.2453 179.979 100.361C180.498 100.98 180.857 101.673 181.104 102.379C181.833 104.893 183.849 106.813 185.11 110.057C183.997 107.135 182.464 105.5 181.623 103.506C180.969 101.153 180.054 98.9989 179.078 96.7948C179.152 96.4482 179.338 96.0894 179.586 95.7801C182.83 94.0121 184.623 97.4794 187.16 97.9887C187.185 97.704 187.099 97.4316 186.913 97.2829C185.528 95.9698 183.993 94.8423 182.509 93.6529C181.766 93.0582 180.962 92.4139 180.22 91.8192C176.768 88.6478 176.957 84.2287 176.329 80.0689C176.478 79.3758 176.082 78.8556 175.587 78.4591C175.801 73.7552 176.408 73.1243 181.099 72.719C181.718 73.2146 182.337 73.7102 182.955 74.2058C183.413 74.7755 183.524 75.2707 183.425 75.902C185.246 73.5017 187.04 74.9389 188.884 75.8067C189.069 75.9554 189.255 76.104 189.441 76.2527C189.922 77.5528 191.061 78.1602 192.199 78.7675C193.4 79.4244 193.832 80.7864 194.054 82.2844C194.773 80.6261 193.337 79.8824 192.93 78.7433C192.102 76.8611 191.422 74.7933 189.504 73.7646C186.992 72.4631 187.204 70.8044 188.926 69.0354C191.005 68.9749 191.883 70.7952 193.281 71.7122C195.657 73.3107 196.45 72.3209 196.464 69.8947C196.143 68.5204 195.103 67.7893 193.791 67.6523C192.653 67.5524 191.972 67.0073 191.787 65.8436C191.936 65.658 192.035 65.5343 192.184 65.3487C193.211 65.4608 193.694 64.7307 194.475 64.1371C196.506 62.6159 198.634 63.5086 199.71 66.0965C200.044 66.0596 200.49 66.0104 200.824 65.9735C202.618 66.9031 203.335 68.7976 204.609 70.123L204.597 70.0116C204.41 70.878 204.781 71.6829 204.979 72.4505C204.904 72.7971 204.817 73.0323 204.619 73.2797C204.272 73.7127 203.987 74.1953 204.655 74.629C205.67 75.1373 206.896 75.0019 207.91 75.5102C210.547 76.4032 212.514 77.8777 212.128 81.0217L212.116 80.9103C212.313 81.6779 212.647 82.6561 211.904 83.0764C209.34 84.3745 212.014 85.0943 212.174 86.0352C212.211 86.3695 212.248 86.7037 212.347 87.0875C212.643 88.239 211.739 89.2411 211.924 90.4048C212.035 90.9001 212.146 91.3953 212.195 91.841C212.182 93.2522 211.265 94.1428 209.89 94.9713C211.525 94.4525 212.082 93.3759 212.331 92.0515C212.592 90.8385 212.395 89.5634 213.126 88.524C213.225 88.4003 213.324 88.2766 213.472 88.091C213.819 87.658 214.043 87.1258 214.464 86.8538C215.504 86.0622 215.283 83.5491 217.35 84.3923C218.996 85 218.685 86.7824 218.56 88.2059C219.45 89.6301 220.527 90.6954 222.335 89.7063C224.104 90.4131 224.54 87.2073 226.47 88.3474C227.287 89.1031 227.67 90.0194 227.347 91.1828C226.876 93.0394 223.335 93.1484 224.497 96.0087C224.483 97.4199 224.173 98.6947 223.095 99.6595C221.597 100.389 220.507 101.75 219.132 102.578C217.721 103.072 216.297 103.455 216.741 105.436C216.964 105.919 216.308 105.597 216.815 105.597C216.815 105.597 216.927 105.585 216.964 105.412C217.063 105.288 217.051 105.176 217.1 105.115C217.311 104.471 217.584 103.877 218.104 103.481C219.664 102.801 220.631 100.834 222.723 101.392C222.994 103.844 221.544 105.526 220.095 107.209C219.004 108.57 218.558 110.141 218.123 111.825C218.246 113.446 217.156 114.807 217.055 116.454C216.609 117.518 215.792 118.285 215.098 119.151C214.8 119.522 215.308 119.015 214.9 119.398C214.59 119.658 214.59 119.658 214.862 119.572C215.407 118.891 215.953 118.211 216.498 117.53C216.696 117.283 216.944 116.974 217.142 116.726C218.752 115.477 218.123 112.84 220.042 111.838C220.686 111.034 221.38 110.168 221.962 109.314C223.401 105.998 224.196 101.963 228.974 101.83C230.014 101.546 230.645 102.153 231.387 102.748C231.461 103.416 231.535 104.085 232.402 103.256C232.972 102.798 233.22 101.981 234.049 101.833C236.117 101.661 237.454 102.021 236.028 104.434C235.891 106.254 233.699 106.834 233.648 108.926C234.997 109.398 235.37 108.172 236.039 107.591C237.265 106.441 238.701 105.662 239.915 104.4C240.621 103.645 241.513 103.039 242.329 104.302C242.44 105.813 241.981 107.273 242.698 108.66C242.648 109.229 242.227 109.501 241.744 109.724C241.385 110.046 240.456 109.81 240.79 110.788C241.805 110.281 242.808 109.663 243.935 109.651C244.616 109.181 244.295 107.807 245.471 107.734C247.662 108.168 248.973 109.32 248.39 111.697C248.117 112.798 248.946 113.665 248.995 114.619C248.512 114.841 247.917 115.076 247.434 115.298C246.913 116.709 248.374 116.661 248.894 117.28C249.215 118.654 248.855 119.991 248.26 121.241C248.061 121.488 247.752 121.748 247.492 121.946C246.686 122.824 246.005 123.802 244.952 124.482C243.961 125.212 243.404 126.288 242.734 127.377C242.202 128.169 241.595 128.8 240.654 128.96C241.594 129.307 242.436 129.271 243.056 128.244C243.242 127.885 243.44 127.638 243.626 127.279C244.543 125.88 245.905 124.941 247.267 124.001C249.051 123.296 249.881 121.626 251.033 120.314C252.433 118.694 253.398 119.264 254.09 120.935L254.029 120.886C254.733 122.161 256.02 123.091 256.192 124.651C255.795 126.16 257.02 127.548 256.684 129.107C257.401 130.494 256.844 131.571 255.939 132.573C255.84 132.697 255.741 132.82 255.531 132.956C254.242 134.057 253.437 135.443 252.508 136.73C252.025 136.952 252.668 136.656 252.322 137.089C252.123 137.336 252.061 137.287 252.421 136.965C253.697 135.753 254.069 133.512 256.397 133.65C258.537 135.162 261.892 134.397 263.128 137.418C263.623 138.322 263.672 139.275 262.978 140.141C261.739 141.18 260.105 141.699 259.509 143.456C260.229 141.798 261.479 140.871 263.386 140.773C264.066 141.318 264.685 141.814 265.365 142.359C265.736 143.671 267.246 144.576 266.7 146.271C264.656 148.189 265.125 150.393 266.101 152.597C266.336 153.191 266.893 153.637 266.038 154.07L266.088 154.008C264.564 155.529 267.176 155.692 266.903 156.794L266.891 156.682C266.494 158.192 267.904 159.221 268.052 160.558C267.456 162.823 265.588 161.224 264.399 161.694C264.015 161.793 263.681 161.83 263.334 161.755C261.986 161.284 260.872 160.392 259.523 159.921C258.682 159.45 257.939 158.855 257.16 158.433C256.924 158.347 256.702 158.371 256.615 158.606C257.047 159.968 258.235 160.514 259.374 161.121C259.671 161.258 259.968 161.394 260.277 161.642C261.019 162.236 261.873 162.819 262.888 162.82C263.581 162.969 264.126 163.303 264.782 163.625C266.205 164.258 266.773 165.83 267.899 166.834C271.364 168.086 267.117 169.458 267.995 170.77C268.515 170.882 269.023 170.882 269.542 170.994C271.324 172.32 271.93 173.719 269.54 175.055L269.651 175.042C267.139 173.741 267.484 175.845 267.174 177.12C266.541 179.051 262.988 180.064 265.499 182.888C265.312 184.262 266.166 185.352 266.462 186.503C265.532 188.805 264.119 190.822 261.903 192.194C261.036 192.515 260.107 192.787 259.24 193.108C257.718 192.6 256.32 191.175 254.5 192.561C253.831 192.634 253.101 192.659 252.432 192.732C251.219 192.472 250.13 191.802 248.843 191.888C246.676 192.184 245.105 190.722 243.15 190.374C241.641 188.454 238.347 190.284 237.148 187.597C237.237 183.302 233.486 184.562 231.283 183.508C229.328 181.638 227.844 179.433 225.741 177.748C224.318 176.608 223.354 175.023 224.37 172.994C224.656 172.003 225.646 171.274 225.35 170.122C225.51 171.063 225.027 171.793 224.482 172.474C223.243 174.02 223.056 175.394 224.677 176.794C226.298 178.194 226.618 180.076 226.332 182.081C224.252 183.157 223.028 181.262 221.443 180.704C220.391 180.369 219.848 179.019 218.548 178.993C218.028 178.882 217.508 178.77 216.939 178.72C216.345 178.447 215.627 178.583 214.971 178.261C212.954 177.356 212.262 174.669 209.539 174.519C210.974 175.77 212.496 176.786 213.919 177.926C215.255 178.793 216.046 180.341 217.631 180.899C219.808 182.238 221.292 184.442 223.817 185.347L223.755 185.298C226.651 186.501 228.605 188.879 231.055 190.638C232.094 191.369 232.366 192.298 230.806 192.978L230.856 192.916C229.394 193.472 227.884 193.582 226.399 193.408L226.461 193.458C225.31 193.246 224.221 192.577 222.933 192.663C221.015 192.142 219.729 190.197 217.451 190.505C214.666 190.305 211.806 190.959 209.071 189.682C207.239 188.419 205.185 188.194 203.142 188.082C201.854 188.675 200.79 188.228 199.85 187.374C198.265 187.323 196.731 186.703 195.208 186.702C193.847 186.627 192.497 186.663 191.086 186.65C190.083 186.76 188.969 186.884 187.966 186.994C186.394 187.055 184.698 187.524 183.758 185.654C183.536 185.172 183.202 184.701 182.979 184.218C182.919 181.631 186.521 182.079 186.436 179.776C185.89 182.487 181.867 181.803 181.357 184.848C181.146 186.507 179.908 186.531 178.695 186.27C177.197 185.984 177.062 184.759 177.261 183.496C176.247 181.465 174.304 180.721 172.46 179.853C172.003 178.776 172.462 177.823 172.759 176.945C172.512 176.239 172.437 177.093 172.264 177.056C170.654 177.797 170.084 178.762 171.482 180.187C172.199 181.574 173.597 182.491 174.314 183.878C174.734 185.128 174.14 185.871 172.939 186.229C172.419 186.117 171.849 186.067 171.268 185.906C169.782 185.732 169.078 184.456 167.989 183.787C167.011 183.105 166.157 183.031 166.552 184.566C166.787 185.668 166.799 186.287 165.647 186.583C165.251 186.57 164.917 186.607 164.521 186.595C160.709 185.775 157.999 183.706 156.528 180.09C156.282 178.877 156.963 177.899 157.929 177.454C160.071 176.428 159.676 174.893 159.207 173.197C158.527 171.637 159.444 169.731 158.047 168.306C157.849 168.046 157.713 167.836 157.465 167.637C157.094 167.34 156.884 167.476 156.821 167.934C157.204 169.358 157.302 170.757 156.843 172.217C156.211 173.133 157.968 174.236 156.594 175.064L156.643 175.002C155.158 175.336 155.032 177.267 153.547 177.6C151.788 179.035 150.228 179.207 148.917 177.04C148.497 176.297 149.03 174.997 147.557 174.934C145.564 174.76 145.392 173.2 145.009 171.776C145.121 171.256 145.171 170.687 145.283 170.167C144.43 168.569 143.809 170.612 143.104 170.351C140.653 170.114 141.322 168.518 141.67 167.07C141.697 163.74 143.234 160.299 140.538 157.327C139.671 157.14 139.226 156.175 138.273 156.223L138.323 156.162C137.221 155.888 137.071 158.612 135.537 156.977C135.253 156.444 135.08 155.899 134.894 155.243C134.807 156.493 133.408 157.099 133.432 158.337C133.926 159.748 134.42 161.16 134.914 162.572C135.124 163.451 136.448 164.207 135.383 165.283C135.073 165.543 134.801 165.629 134.466 165.666C134.12 165.591 133.761 165.406 133.514 165.207C133.316 164.947 133.056 164.638 132.908 164.316C132.475 162.954 131.944 161.715 131.14 160.564C130.658 159.771 130.671 158.867 130.572 157.976C130.511 157.419 130.511 156.911 130.19 156.045C130.499 156.8 130.498 157.307 130.609 157.803C130.621 159.437 131.35 160.935 131.473 162.557C131.398 162.903 131.212 163.262 130.965 163.572C130.655 163.831 130.333 163.98 129.937 163.967C129.355 163.806 128.972 163.397 128.898 162.728C128.341 162.282 127.722 161.787 127.166 161.341C127.204 160.152 126.028 159.718 125.694 158.74C125.795 157.094 126.291 155.46 125.611 153.9C125.833 155.398 126.636 157.057 124.544 158.021C124.16 158.12 123.826 158.157 123.479 158.083C122.18 157.549 120.744 157.313 119.37 157.127C121.499 157.512 123.764 157.6 124.963 159.779C125.136 160.324 124.913 160.856 124.975 161.414C127.66 162.752 127.126 165.574 127.817 167.753C127.705 169.288 127.926 171.294 125.464 169.423C124.846 168.927 124.35 169.039 124.226 169.955C124.634 171.094 125.636 171.998 125.66 173.236C125.697 173.57 125.734 173.904 125.771 174.239C125.842 178.46 122.685 178.978 119.639 179.483C119.491 179.669 119.342 179.854 119.193 180.04C115.256 181.151 114.726 177.883 113.514 175.592C113.292 175.109 113.057 174.515 112.835 174.032C112.711 173.425 112.699 172.806 112.625 172.138C112.155 172.472 112.278 173.078 111.869 173.462C111.362 173.969 110.742 174.488 110.729 175.392C110.717 175.788 110.877 176.222 110.803 176.568C110.43 178.301 111.208 181.26 109.413 181.345C107.395 181.456 104.437 181.218 103.238 178.531C104.118 176.799 103.488 175.177 102.907 173.493C102.709 172.725 102.438 171.797 101.608 171.945C100.222 172.154 100.704 173.454 100.517 174.321C100.591 174.989 100.714 175.596 100.788 176.264C101.23 182.305 101.23 182.305 95.5492 180.395C96.1692 178.861 97.5072 177.19 94.5119 176.619L94.5738 176.669C93.1752 176.259 91.9749 175.602 91.5798 174.067C92.2374 171.851 90.9636 170.019 90.2965 168.062C90.0743 167.072 91.9319 166.021 90.6697 165.314C89.5313 164.707 87.7985 164.334 87.4133 166.463C87.1156 167.342 87.1149 168.357 86.2109 168.852C84.2176 169.185 82.1506 168.849 81.0719 171.336C80.2164 173.292 78.8934 171.013 77.7792 171.136C77.2467 171.42 76.7638 171.643 76.2313 171.927C74.6844 171.196 73.0631 170.811 71.454 170.538C69.9085 167.776 66.7655 165.867 66.6442 162.216C66.175 160.519 64.517 159.293 64.4193 157.386C64.1476 156.458 64.0987 155.504 64.5078 154.613C65.3383 152.943 65.9956 151.235 66.888 149.614C67.5572 148.525 68.412 147.585 69.2791 146.756C70.2945 146.249 71.2357 145.581 71.5577 145.433C69.7743 146.645 66.1966 146.927 65.0677 150.492C64.8072 151.197 63.6811 150.701 62.9633 150.329C61.924 149.598 61.5163 148.459 61.22 147.308C59.561 147.604 60.0432 148.396 60.8102 149.214C61.8245 150.229 63.1486 150.985 63.7542 152.385C64.2853 154.13 63.9005 155.752 63.0576 157.311C62.4257 158.227 62.7462 160.109 60.6669 159.661C62.1146 160.517 63.7483 161.013 64.49 162.623C64.6257 163.341 64.7118 164.121 64.7856 164.789C64.2893 166.423 63.2982 167.66 61.7626 168.563C59.6955 168.227 57.7029 167.545 55.6721 168.559C57.0696 170.491 53.8135 171.132 54.456 172.866C54.9758 172.977 55.4957 173.089 56.0651 173.139C57.0183 173.09 57.7607 173.685 58.6394 173.983C61.0403 174.789 60.9156 176.212 59.2186 177.697C57.98 178.736 56.4817 179.465 55.1935 180.566C53.4357 180.478 51.9001 181.381 50.2412 181.677C48.8177 181.552 48.2742 179.695 46.7144 179.867C45.4265 180.46 44.1893 179.469 42.8646 179.728C42.0731 178.688 42.2221 177.995 43.5222 177.513C44.2656 176.585 44.4764 175.941 42.9292 175.717C42.298 175.618 41.7163 175.457 41.085 175.357C39.6864 174.948 38.5483 173.833 36.9512 174.178C35.9112 174.462 35.3298 173.793 34.6493 173.248C34.8866 170.29 31.3215 170.176 30.5679 167.947C30.0111 167.501 29.3925 167.006 28.8358 166.56C28.738 164.653 25.5335 162.188 30.003 161.299C30.3372 161.262 30.7333 161.275 31.0676 161.238C32.5776 161.635 34.0253 162.49 35.7093 161.91C36.7616 161.737 36.453 160.474 37.1342 160.004C38.7077 157.913 36.2575 156.661 36.1225 154.928C35.9869 154.21 35.8512 153.492 35.7773 152.824C35.8279 151.239 37.0536 151.104 38.2173 150.919C39.2078 150.697 40.3466 150.797 40.1743 149.237C40.2615 148.494 40.6457 147.888 41.1535 147.381C41.4509 147.009 41.9338 146.787 42.1693 146.366C41.9092 146.564 41.5996 146.824 41.2899 147.084C40.3364 147.64 39.9272 148.531 39.4067 149.434C38.341 151.018 36.6451 150.98 34.9861 151.276C31.7792 152.363 31.8804 149.194 30.594 147.757C31.2512 146.049 32.3911 144.626 33.7907 143.513C34.4841 143.155 35.2518 142.957 35.9575 142.71C37.4928 142.315 37.9395 140.743 38.7321 140.261C38.2119 140.657 37.6418 141.622 36.8739 142.327C36.1308 142.747 35.1899 142.908 34.3232 143.229C33.5183 143.6 32.6888 143.748 31.7851 143.735C31.2653 143.623 30.634 143.524 30.1142 143.412C30.7226 140.751 31.1577 138.052 33.6099 136.259C33.87 136.061 34.1797 135.801 34.5139 135.765C34.7245 135.629 34.9473 135.604 35.1701 135.579C34.9599 135.208 34.7863 135.678 34.5512 135.591C32.7312 135.961 30.9236 136.443 29.687 134.437C29.0941 132.641 29.9242 131.478 31.3361 130.477C31.7572 130.205 31.2989 130.65 31.6458 130.217C32.1291 129.487 31.4851 129.783 31.2127 129.87C30.8908 130.018 30.6184 130.105 30.4079 130.241C29.3429 130.809 28.8347 131.824 28.0913 132.752C27.8435 133.061 27.6453 133.309 27.3975 133.618C25.8738 135.14 25.0946 134.211 24.4271 132.762C24.2046 132.279 23.9698 131.685 23.7473 131.202C23.7856 129.506 24.0344 127.674 24.7535 126.016Z"/>
</mask>
<path d="M24.7535 126.016C24.8161 125.05 24.8291 124.146 24.8916 123.181C25.0659 121.696 25.1784 120.161 26.417 119.122C26.6275 118.986 26.8504 118.961 27.0732 118.936C27.3952 118.788 27.3829 118.677 27.0363 118.602C26.7393 118.466 26.5537 118.317 26.3681 118.168C25.7994 117.103 23.5338 117.523 23.9932 115.555C24.9843 114.318 25.9755 113.08 26.9666 111.843C28.1184 111.039 29.53 110.545 29.4445 108.75C32.9136 104.42 36.3827 100.09 39.8517 95.7592C41.3364 96.9486 42.7592 98.0885 44.2439 99.2779C47.2635 100.58 48.1036 103.081 47.7672 106.163C47.9528 106.312 48.1507 106.572 48.3363 106.72C48.3103 108.528 51.5784 108.505 50.6484 110.807C50.6357 111.203 49.8927 111.624 50.7218 111.983C50.8087 111.748 50.8336 111.463 50.9204 111.228C51.1812 110.015 52.1098 109.743 53.1375 109.348C54.1157 109.014 55.6014 108.681 55.0703 106.935C54.8731 105.66 55.9258 104.98 56.5082 104.126C60.8276 105.454 62.9216 102.46 65.1022 99.7377C71.9353 99.829 72.1828 100.027 74.2584 106.057C74.3687 107.568 73.4271 108.743 73.0177 110.141C73.2648 110.847 72.992 111.441 72.5956 111.936C70.5517 113.853 68.7676 116.08 65.7839 116.636L65.8335 116.574C62.7753 117.475 60.2861 118.934 60.5311 122.685C60.5308 123.193 60.419 123.713 60.2577 124.294C60.0591 125.049 59.217 125.593 59.5382 126.46C59.7857 126.658 59.9713 126.807 60.2187 127.005C60.8869 127.439 61.4064 128.058 61.7153 128.814C61.9501 129.408 62.1354 130.064 62.2092 130.733C61.9853 132.28 62.5174 132.503 63.793 131.798C65.3279 131.911 66.144 133.174 67.3444 133.831C68.9777 134.835 70.8592 135.022 72.6539 135.444C73.347 135.593 73.9782 135.692 74.6714 135.841C75.9462 136.152 77.3574 136.165 78.6695 136.302C79.177 136.302 79.635 136.365 80.1425 136.365C81.2936 136.576 82.3706 136.627 83.5097 136.219C83.6707 136.145 83.9554 136.17 84.1782 136.145C83.9557 135.662 83.6707 136.145 83.4356 136.058C81.8753 136.738 80.5017 136.043 78.9918 135.646C78.6452 135.572 78.2987 135.497 77.9521 135.423C76.7887 135.1 75.5757 134.839 74.3624 135.086C73.8053 135.148 73.2978 135.147 72.8275 134.974C71.7136 134.589 70.5998 134.205 69.3991 134.055C69.0526 133.981 68.6937 133.795 68.3471 133.72C66.3672 132.642 65.118 131.032 64.7606 128.816C64.5507 127.937 64.3904 126.996 64.453 126.03C64.6526 123.753 68.1066 123.371 67.6999 120.71C68.3811 120.24 69.0745 119.881 69.7557 119.411C71.0309 119.214 72.0825 120.056 73.3081 119.921C74.558 120.516 75.7088 121.235 76.81 122.015C77.0574 122.214 77.2676 122.585 77.6142 122.66C77.4286 122.511 77.2925 122.301 77.2061 122.028C76.9467 121.211 76.7368 120.332 76.366 119.527C75.9337 118.165 75.6127 116.791 77.3958 116.086C79.1286 116.459 80.3655 117.958 81.9619 118.627C82.8898 119.371 81.9482 120.546 82.6038 121.376C82.6294 120.076 82.9767 119.135 84.3509 118.814C87.6064 119.188 87.8401 121.305 87.3182 124.238C87.7403 122.444 87.5185 120.946 87.5937 119.584C88.5849 118.347 89.8597 118.657 91.085 119.029C92.2361 119.241 92.8311 117.991 93.9081 118.041C95.6658 118.129 97.4858 117.759 99.2059 118.527C97.8447 117.945 96.4458 118.043 94.985 118.091C93.4255 117.756 91.828 118.609 90.2808 118.385C88.8204 117.926 87.1364 118.507 85.8746 117.293C84.0926 116.475 82.4838 115.694 81.7425 113.576C80.9766 111.236 81.559 110.382 83.9604 110.681C85.3965 110.41 86.3982 111.822 87.698 111.847C87.6362 111.798 87.7476 111.786 87.7476 111.786L87.5124 111.699C85.0243 111.635 85.6829 107.897 83.0957 107.957L83.1575 108.007C81.45 106.842 82.1568 105.072 81.9227 103.463C81.8612 102.906 82.3568 102.287 82.8271 102.461C85.1536 103.614 86.6656 100.966 88.7204 101.19C90.6517 100.807 92.496 101.168 94.3525 101.639C94.7486 101.652 95.157 101.776 95.4168 102.086C96.5422 103.597 97.1735 103.696 98.4367 102.88C100.009 102.819 101.68 102.635 103.078 103.552C104.861 103.862 105.132 105.298 105.564 106.66L105.503 106.611C106.219 109.52 108.346 111.428 110.264 113.472C110.163 115.626 108.912 117.569 109.269 119.785C110.221 121.766 109.626 123.523 108.152 124.983C108.411 126.308 107.506 127.31 107.072 128.486C106.936 128.783 106.799 129.08 106.614 129.438C106.143 130.28 105.436 131.035 104.842 131.777C104.693 131.962 104.619 132.309 104.792 132.346C105.188 132.359 105.498 132.099 105.82 131.951C107.045 131.815 107.838 131.333 107.455 129.909C107.48 129.117 107.629 128.424 108.001 127.706C108.596 126.964 109.24 126.16 110.255 126.668C111.208 127.127 110.885 128.29 110.81 129.144C110.996 129.293 111.243 129.491 111.379 129.702C111.713 131.187 113.111 132.104 113.555 133.578C114.569 135.101 115.907 133.938 116.996 134.1C116.415 132.924 115.041 133.245 114.237 132.6C113.878 132.414 113.68 132.154 113.42 131.845C112.555 130.643 112.989 129.468 113.423 128.292C113.77 126.844 112.917 125.754 112.386 124.516C112.808 122.213 112.203 119.799 113.368 117.584C114.075 116.322 114.212 114.502 116.638 115.024C118.891 115.508 117.949 117.191 118.356 118.33C118.393 119.172 117.712 119.642 117.39 120.298C118.368 119.457 119.532 118.764 119.83 117.378C119.905 117.031 120.165 116.833 120.549 116.735C122.493 115.956 124.498 115.227 126.443 114.449C128.015 113.373 128.426 110.959 130.629 110.49C131.112 110.268 131.608 110.157 132.09 109.934C134.171 108.351 135.621 106.668 135.412 103.759C135.327 101.964 135.984 99.7488 138.695 99.7878C143.932 99.2095 143.932 99.2095 143.459 103.096C143.893 101.921 143.956 100.447 144.724 99.2348C145.988 97.4036 148.056 97.2317 149.95 96.515C151.534 97.5807 153.59 96.2823 155.149 97.6327C155.494 99.2298 156.236 100.84 154.935 102.337C154.092 103.388 154.612 104.515 154.896 105.555C154.883 105.951 154.982 106.335 154.969 106.731C156.093 109.765 155.522 112.253 153.193 114.652C150.109 117.869 148.014 121.878 144.496 124.748L144.546 124.686C143.233 126.072 140.46 125.475 140.075 128.112C140 128.458 139.802 128.706 139.604 128.953C138.514 129.807 139.033 130.934 139.206 131.986C139.28 132.654 139.192 133.397 139.093 134.028C138.696 135.538 139.946 136.133 140.762 136.889C140.948 137.038 141.195 137.236 141.269 137.397C141.207 137.347 141.381 137.385 141.381 137.385C141.381 137.385 141.245 137.174 141.183 137.125C140.379 136.48 139.797 135.811 139.736 134.747C139.75 132.828 140.221 130.972 141.225 129.338C141.473 129.029 141.795 128.881 142.179 128.782C142.922 128.361 143.603 127.891 144.346 127.471C146.649 127.386 149.223 127.722 149.411 124.318C151.134 121.026 154.243 119.048 156.782 116.512C157.897 115.881 159.073 114.793 160.075 116.712C160.706 117.319 161.547 117.79 161.546 118.805C162.968 121.975 164.649 124.947 166.442 127.907L166.38 127.857C166.59 129.752 169.165 128.565 169.474 130.335C169.758 130.868 170.042 131.4 170.265 131.883C170.511 133.097 171.551 133.828 172.219 134.769C172.639 135.512 173.22 136.181 173.641 136.924C173.789 137.246 173.888 137.63 174.036 137.952C174.284 137.642 174.086 137.382 174 137.11C173.814 136.454 173.369 135.995 173.035 135.525C172.441 134.744 172.343 133.853 172.517 132.875L172.567 132.813C172.902 130.746 174.276 131.44 175.501 131.813C176.046 132.147 176.59 132.482 176.775 133.138C177.814 135.392 180.623 135.814 181.612 138.13L181.55 138.08C182.193 139.306 182.724 140.545 183.727 141.449C184.122 141.969 184.63 142.477 184.976 143.059C185.112 143.27 185.186 143.431 185.322 143.641C185.409 143.406 185.384 143.183 185.248 142.973C184.951 142.329 185.113 141.747 185.262 141.054C185.548 139.049 184.435 137.649 183.21 136.262C181.775 134.503 181.727 133.042 184.166 132.153C184.204 131.472 184.749 131.299 185.293 131.126C187.126 130.867 188.784 131.586 190.38 132.256C191.544 132.579 192.683 132.678 193.796 133.063C194.143 133.137 194.49 133.212 194.787 133.348C196.074 133.77 197.423 134.241 198.71 134.663C199.477 134.973 200.145 135.407 200.764 135.902C200.405 135.209 199.7 134.949 199.143 134.503C197.955 133.957 196.755 133.3 195.418 132.94C194.44 132.766 193.462 132.592 192.497 132.53C191.977 132.418 191.47 132.418 190.999 132.244C190.702 132.108 190.393 131.86 190.195 131.6C189.626 130.535 189.02 129.643 187.633 130.36C187.089 130.533 186.593 130.644 186.148 130.693C184.934 130.94 183.722 130.679 182.533 130.641C182.236 130.505 181.989 130.307 181.692 130.17C176.852 128.731 173.389 125.448 170.061 121.869C169.442 121.373 168.824 120.877 168.255 120.32C168.479 118.265 166.561 117.236 166.03 115.491C165.622 113.844 167.059 113.573 168.012 113.016C169.423 113.029 170.091 114.478 171.316 114.85C171.564 115.049 171.823 115.358 171.972 115.68C172.516 116.522 173.407 116.932 174.248 117.403C174.483 117.489 174.706 117.465 174.917 117.329C174.868 116.376 174.088 116.462 173.444 116.251C172.925 116.139 172.454 115.965 172.133 115.606C171.786 115.024 171.44 114.442 171.478 113.761C171.082 112.734 170.179 111.705 171.121 110.53C171.418 110.159 171.802 110.06 172.186 109.961C172.297 109.949 172.409 109.937 172.409 109.937C172.496 109.702 172.421 109.541 172.137 109.516C171.394 109.429 170.651 109.341 169.983 109.415C169.599 109.514 169.203 109.501 168.819 109.6C167.73 109.946 166.615 110.069 165.477 109.969L165.538 110.019C164.425 109.127 163.633 108.086 162.879 106.873L162.891 106.984C163.623 105.437 163.265 104.236 161.966 103.195C162.325 101.859 162.685 100.522 163.095 99.1236C164.358 98.3074 162.142 98.1573 162.799 97.4646C162.936 95.6449 163.618 94.1599 165.686 93.988C166.998 94.1251 168.235 94.6087 169.547 94.7458C170.809 95.4522 172.208 95.8617 173.607 96.2711C174.188 96.4325 174.758 96.4824 175.339 96.6437C177.431 97.2022 178.333 99.2453 179.979 100.361C180.498 100.98 180.857 101.673 181.104 102.379C181.833 104.893 183.849 106.813 185.11 110.057C183.997 107.135 182.464 105.5 181.623 103.506C180.969 101.153 180.054 98.9989 179.078 96.7948C179.152 96.4482 179.338 96.0894 179.586 95.7801C182.83 94.0121 184.623 97.4794 187.16 97.9887C187.185 97.704 187.099 97.4316 186.913 97.2829C185.528 95.9698 183.993 94.8423 182.509 93.6529C181.766 93.0582 180.962 92.4139 180.22 91.8192C176.768 88.6478 176.957 84.2287 176.329 80.0689C176.478 79.3758 176.082 78.8556 175.587 78.4591C175.801 73.7552 176.408 73.1243 181.099 72.719C181.718 73.2146 182.337 73.7102 182.955 74.2058C183.413 74.7755 183.524 75.2707 183.425 75.902C185.246 73.5017 187.04 74.9389 188.884 75.8067C189.069 75.9554 189.255 76.104 189.441 76.2527C189.922 77.5528 191.061 78.1602 192.199 78.7675C193.4 79.4244 193.832 80.7864 194.054 82.2844C194.773 80.6261 193.337 79.8824 192.93 78.7433C192.102 76.8611 191.422 74.7933 189.504 73.7646C186.992 72.4631 187.204 70.8044 188.926 69.0354C191.005 68.9749 191.883 70.7952 193.281 71.7122C195.657 73.3107 196.45 72.3209 196.464 69.8947C196.143 68.5204 195.103 67.7893 193.791 67.6523C192.653 67.5524 191.972 67.0073 191.787 65.8436C191.936 65.658 192.035 65.5343 192.184 65.3487C193.211 65.4608 193.694 64.7307 194.475 64.1371C196.506 62.6159 198.634 63.5086 199.71 66.0965C200.044 66.0596 200.49 66.0104 200.824 65.9735C202.618 66.9031 203.335 68.7976 204.609 70.123L204.597 70.0116C204.41 70.878 204.781 71.6829 204.979 72.4505C204.904 72.7971 204.817 73.0323 204.619 73.2797C204.272 73.7127 203.987 74.1953 204.655 74.629C205.67 75.1373 206.896 75.0019 207.91 75.5102C210.547 76.4032 212.514 77.8777 212.128 81.0217L212.116 80.9103C212.313 81.6779 212.647 82.6561 211.904 83.0764C209.34 84.3745 212.014 85.0943 212.174 86.0352C212.211 86.3695 212.248 86.7037 212.347 87.0875C212.643 88.239 211.739 89.2411 211.924 90.4048C212.035 90.9001 212.146 91.3953 212.195 91.841C212.182 93.2522 211.265 94.1428 209.89 94.9713C211.525 94.4525 212.082 93.3759 212.331 92.0515C212.592 90.8385 212.395 89.5634 213.126 88.524C213.225 88.4003 213.324 88.2766 213.472 88.091C213.819 87.658 214.043 87.1258 214.464 86.8538C215.504 86.0622 215.283 83.5491 217.35 84.3923C218.996 85 218.685 86.7824 218.56 88.2059C219.45 89.6301 220.527 90.6954 222.335 89.7063C224.104 90.4131 224.54 87.2073 226.47 88.3474C227.287 89.1031 227.67 90.0194 227.347 91.1828C226.876 93.0394 223.335 93.1484 224.497 96.0087C224.483 97.4199 224.173 98.6947 223.095 99.6595C221.597 100.389 220.507 101.75 219.132 102.578C217.721 103.072 216.297 103.455 216.741 105.436C216.964 105.919 216.308 105.597 216.815 105.597C216.815 105.597 216.927 105.585 216.964 105.412C217.063 105.288 217.051 105.176 217.1 105.115C217.311 104.471 217.584 103.877 218.104 103.481C219.664 102.801 220.631 100.834 222.723 101.392C222.994 103.844 221.544 105.526 220.095 107.209C219.004 108.57 218.558 110.141 218.123 111.825C218.246 113.446 217.156 114.807 217.055 116.454C216.609 117.518 215.792 118.285 215.098 119.151C214.8 119.522 215.308 119.015 214.9 119.398C214.59 119.658 214.59 119.658 214.862 119.572C215.407 118.891 215.953 118.211 216.498 117.53C216.696 117.283 216.944 116.974 217.142 116.726C218.752 115.477 218.123 112.84 220.042 111.838C220.686 111.034 221.38 110.168 221.962 109.314C223.401 105.998 224.196 101.963 228.974 101.83C230.014 101.546 230.645 102.153 231.387 102.748C231.461 103.416 231.535 104.085 232.402 103.256C232.972 102.798 233.22 101.981 234.049 101.833C236.117 101.661 237.454 102.021 236.028 104.434C235.891 106.254 233.699 106.834 233.648 108.926C234.997 109.398 235.37 108.172 236.039 107.591C237.265 106.441 238.701 105.662 239.915 104.4C240.621 103.645 241.513 103.039 242.329 104.302C242.44 105.813 241.981 107.273 242.698 108.66C242.648 109.229 242.227 109.501 241.744 109.724C241.385 110.046 240.456 109.81 240.79 110.788C241.805 110.281 242.808 109.663 243.935 109.651C244.616 109.181 244.295 107.807 245.471 107.734C247.662 108.168 248.973 109.32 248.39 111.697C248.117 112.798 248.946 113.665 248.995 114.619C248.512 114.841 247.917 115.076 247.434 115.298C246.913 116.709 248.374 116.661 248.894 117.28C249.215 118.654 248.855 119.991 248.26 121.241C248.061 121.488 247.752 121.748 247.492 121.946C246.686 122.824 246.005 123.802 244.952 124.482C243.961 125.212 243.404 126.288 242.734 127.377C242.202 128.169 241.595 128.8 240.654 128.96C241.594 129.307 242.436 129.271 243.056 128.244C243.242 127.885 243.44 127.638 243.626 127.279C244.543 125.88 245.905 124.941 247.267 124.001C249.051 123.296 249.881 121.626 251.033 120.314C252.433 118.694 253.398 119.264 254.09 120.935L254.029 120.886C254.733 122.161 256.02 123.091 256.192 124.651C255.795 126.16 257.02 127.548 256.684 129.107C257.401 130.494 256.844 131.571 255.939 132.573C255.84 132.697 255.741 132.82 255.531 132.956C254.242 134.057 253.437 135.443 252.508 136.73C252.025 136.952 252.668 136.656 252.322 137.089C252.123 137.336 252.061 137.287 252.421 136.965C253.697 135.753 254.069 133.512 256.397 133.65C258.537 135.162 261.892 134.397 263.128 137.418C263.623 138.322 263.672 139.275 262.978 140.141C261.739 141.18 260.105 141.699 259.509 143.456C260.229 141.798 261.479 140.871 263.386 140.773C264.066 141.318 264.685 141.814 265.365 142.359C265.736 143.671 267.246 144.576 266.7 146.271C264.656 148.189 265.125 150.393 266.101 152.597C266.336 153.191 266.893 153.637 266.038 154.07L266.088 154.008C264.564 155.529 267.176 155.692 266.903 156.794L266.891 156.682C266.494 158.192 267.904 159.221 268.052 160.558C267.456 162.823 265.588 161.224 264.399 161.694C264.015 161.793 263.681 161.83 263.334 161.755C261.986 161.284 260.872 160.392 259.523 159.921C258.682 159.45 257.939 158.855 257.16 158.433C256.924 158.347 256.702 158.371 256.615 158.606C257.047 159.968 258.235 160.514 259.374 161.121C259.671 161.258 259.968 161.394 260.277 161.642C261.019 162.236 261.873 162.819 262.888 162.82C263.581 162.969 264.126 163.303 264.782 163.625C266.205 164.258 266.773 165.83 267.899 166.834C271.364 168.086 267.117 169.458 267.995 170.77C268.515 170.882 269.023 170.882 269.542 170.994C271.324 172.32 271.93 173.719 269.54 175.055L269.651 175.042C267.139 173.741 267.484 175.845 267.174 177.12C266.541 179.051 262.988 180.064 265.499 182.888C265.312 184.262 266.166 185.352 266.462 186.503C265.532 188.805 264.119 190.822 261.903 192.194C261.036 192.515 260.107 192.787 259.24 193.108C257.718 192.6 256.32 191.175 254.5 192.561C253.831 192.634 253.101 192.659 252.432 192.732C251.219 192.472 250.13 191.802 248.843 191.888C246.676 192.184 245.105 190.722 243.15 190.374C241.641 188.454 238.347 190.284 237.148 187.597C237.237 183.302 233.486 184.562 231.283 183.508C229.328 181.638 227.844 179.433 225.741 177.748C224.318 176.608 223.354 175.023 224.37 172.994C224.656 172.003 225.646 171.274 225.35 170.122C225.51 171.063 225.027 171.793 224.482 172.474C223.243 174.02 223.056 175.394 224.677 176.794C226.298 178.194 226.618 180.076 226.332 182.081C224.252 183.157 223.028 181.262 221.443 180.704C220.391 180.369 219.848 179.019 218.548 178.993C218.028 178.882 217.508 178.77 216.939 178.72C216.345 178.447 215.627 178.583 214.971 178.261C212.954 177.356 212.262 174.669 209.539 174.519C210.974 175.77 212.496 176.786 213.919 177.926C215.255 178.793 216.046 180.341 217.631 180.899C219.808 182.238 221.292 184.442 223.817 185.347L223.755 185.298C226.651 186.501 228.605 188.879 231.055 190.638C232.094 191.369 232.366 192.298 230.806 192.978L230.856 192.916C229.394 193.472 227.884 193.582 226.399 193.408L226.461 193.458C225.31 193.246 224.221 192.577 222.933 192.663C221.015 192.142 219.729 190.197 217.451 190.505C214.666 190.305 211.806 190.959 209.071 189.682C207.239 188.419 205.185 188.194 203.142 188.082C201.854 188.675 200.79 188.228 199.85 187.374C198.265 187.323 196.731 186.703 195.208 186.702C193.847 186.627 192.497 186.663 191.086 186.65C190.083 186.76 188.969 186.884 187.966 186.994C186.394 187.055 184.698 187.524 183.758 185.654C183.536 185.172 183.202 184.701 182.979 184.218C182.919 181.631 186.521 182.079 186.436 179.776C185.89 182.487 181.867 181.803 181.357 184.848C181.146 186.507 179.908 186.531 178.695 186.27C177.197 185.984 177.062 184.759 177.261 183.496C176.247 181.465 174.304 180.721 172.46 179.853C172.003 178.776 172.462 177.823 172.759 176.945C172.512 176.239 172.437 177.093 172.264 177.056C170.654 177.797 170.084 178.762 171.482 180.187C172.199 181.574 173.597 182.491 174.314 183.878C174.734 185.128 174.14 185.871 172.939 186.229C172.419 186.117 171.849 186.067 171.268 185.906C169.782 185.732 169.078 184.456 167.989 183.787C167.011 183.105 166.157 183.031 166.552 184.566C166.787 185.668 166.799 186.287 165.647 186.583C165.251 186.57 164.917 186.607 164.521 186.595C160.709 185.775 157.999 183.706 156.528 180.09C156.282 178.877 156.963 177.899 157.929 177.454C160.071 176.428 159.676 174.893 159.207 173.197C158.527 171.637 159.444 169.731 158.047 168.306C157.849 168.046 157.713 167.836 157.465 167.637C157.094 167.34 156.884 167.476 156.821 167.934C157.204 169.358 157.302 170.757 156.843 172.217C156.211 173.133 157.968 174.236 156.594 175.064L156.643 175.002C155.158 175.336 155.032 177.267 153.547 177.6C151.788 179.035 150.228 179.207 148.917 177.04C148.497 176.297 149.03 174.997 147.557 174.934C145.564 174.76 145.392 173.2 145.009 171.776C145.121 171.256 145.171 170.687 145.283 170.167C144.43 168.569 143.809 170.612 143.104 170.351C140.653 170.114 141.322 168.518 141.67 167.07C141.697 163.74 143.234 160.299 140.538 157.327C139.671 157.14 139.226 156.175 138.273 156.223L138.323 156.162C137.221 155.888 137.071 158.612 135.537 156.977C135.253 156.444 135.08 155.899 134.894 155.243C134.807 156.493 133.408 157.099 133.432 158.337C133.926 159.748 134.42 161.16 134.914 162.572C135.124 163.451 136.448 164.207 135.383 165.283C135.073 165.543 134.801 165.629 134.466 165.666C134.12 165.591 133.761 165.406 133.514 165.207C133.316 164.947 133.056 164.638 132.908 164.316C132.475 162.954 131.944 161.715 131.14 160.564C130.658 159.771 130.671 158.867 130.572 157.976C130.511 157.419 130.511 156.911 130.19 156.045C130.499 156.8 130.498 157.307 130.609 157.803C130.621 159.437 131.35 160.935 131.473 162.557C131.398 162.903 131.212 163.262 130.965 163.572C130.655 163.831 130.333 163.98 129.937 163.967C129.355 163.806 128.972 163.397 128.898 162.728C128.341 162.282 127.722 161.787 127.166 161.341C127.204 160.152 126.028 159.718 125.694 158.74C125.795 157.094 126.291 155.46 125.611 153.9C125.833 155.398 126.636 157.057 124.544 158.021C124.16 158.12 123.826 158.157 123.479 158.083C122.18 157.549 120.744 157.313 119.37 157.127C121.499 157.512 123.764 157.6 124.963 159.779C125.136 160.324 124.913 160.856 124.975 161.414C127.66 162.752 127.126 165.574 127.817 167.753C127.705 169.288 127.926 171.294 125.464 169.423C124.846 168.927 124.35 169.039 124.226 169.955C124.634 171.094 125.636 171.998 125.66 173.236C125.697 173.57 125.734 173.904 125.771 174.239C125.842 178.46 122.685 178.978 119.639 179.483C119.491 179.669 119.342 179.854 119.193 180.04C115.256 181.151 114.726 177.883 113.514 175.592C113.292 175.109 113.057 174.515 112.835 174.032C112.711 173.425 112.699 172.806 112.625 172.138C112.155 172.472 112.278 173.078 111.869 173.462C111.362 173.969 110.742 174.488 110.729 175.392C110.717 175.788 110.877 176.222 110.803 176.568C110.43 178.301 111.208 181.26 109.413 181.345C107.395 181.456 104.437 181.218 103.238 178.531C104.118 176.799 103.488 175.177 102.907 173.493C102.709 172.725 102.438 171.797 101.608 171.945C100.222 172.154 100.704 173.454 100.517 174.321C100.591 174.989 100.714 175.596 100.788 176.264C101.23 182.305 101.23 182.305 95.5492 180.395C96.1692 178.861 97.5072 177.19 94.5119 176.619L94.5738 176.669C93.1752 176.259 91.9749 175.602 91.5798 174.067C92.2374 171.851 90.9636 170.019 90.2965 168.062C90.0743 167.072 91.9319 166.021 90.6697 165.314C89.5313 164.707 87.7985 164.334 87.4133 166.463C87.1156 167.342 87.1149 168.357 86.2109 168.852C84.2176 169.185 82.1506 168.849 81.0719 171.336C80.2164 173.292 78.8934 171.013 77.7792 171.136C77.2467 171.42 76.7638 171.643 76.2313 171.927C74.6844 171.196 73.0631 170.811 71.454 170.538C69.9085 167.776 66.7655 165.867 66.6442 162.216C66.175 160.519 64.517 159.293 64.4193 157.386C64.1476 156.458 64.0987 155.504 64.5078 154.613C65.3383 152.943 65.9956 151.235 66.888 149.614C67.5572 148.525 68.412 147.585 69.2791 146.756C70.2945 146.249 71.2357 145.581 71.5577 145.433C69.7743 146.645 66.1966 146.927 65.0677 150.492C64.8072 151.197 63.6811 150.701 62.9633 150.329C61.924 149.598 61.5163 148.459 61.22 147.308C59.561 147.604 60.0432 148.396 60.8102 149.214C61.8245 150.229 63.1486 150.985 63.7542 152.385C64.2853 154.13 63.9005 155.752 63.0576 157.311C62.4257 158.227 62.7462 160.109 60.6669 159.661C62.1146 160.517 63.7483 161.013 64.49 162.623C64.6257 163.341 64.7118 164.121 64.7856 164.789C64.2893 166.423 63.2982 167.66 61.7626 168.563C59.6955 168.227 57.7029 167.545 55.6721 168.559C57.0696 170.491 53.8135 171.132 54.456 172.866C54.9758 172.977 55.4957 173.089 56.0651 173.139C57.0183 173.09 57.7607 173.685 58.6394 173.983C61.0403 174.789 60.9156 176.212 59.2186 177.697C57.98 178.736 56.4817 179.465 55.1935 180.566C53.4357 180.478 51.9001 181.381 50.2412 181.677C48.8177 181.552 48.2742 179.695 46.7144 179.867C45.4265 180.46 44.1893 179.469 42.8646 179.728C42.0731 178.688 42.2221 177.995 43.5222 177.513C44.2656 176.585 44.4764 175.941 42.9292 175.717C42.298 175.618 41.7163 175.457 41.085 175.357C39.6864 174.948 38.5483 173.833 36.9512 174.178C35.9112 174.462 35.3298 173.793 34.6493 173.248C34.8866 170.29 31.3215 170.176 30.5679 167.947C30.0111 167.501 29.3925 167.006 28.8358 166.56C28.738 164.653 25.5335 162.188 30.003 161.299C30.3372 161.262 30.7333 161.275 31.0676 161.238C32.5776 161.635 34.0253 162.49 35.7093 161.91C36.7616 161.737 36.453 160.474 37.1342 160.004C38.7077 157.913 36.2575 156.661 36.1225 154.928C35.9869 154.21 35.8512 153.492 35.7773 152.824C35.8279 151.239 37.0536 151.104 38.2173 150.919C39.2078 150.697 40.3466 150.797 40.1743 149.237C40.2615 148.494 40.6457 147.888 41.1535 147.381C41.4509 147.009 41.9338 146.787 42.1693 146.366C41.9092 146.564 41.5996 146.824 41.2899 147.084C40.3364 147.64 39.9272 148.531 39.4067 149.434C38.341 151.018 36.6451 150.98 34.9861 151.276C31.7792 152.363 31.8804 149.194 30.594 147.757C31.2512 146.049 32.3911 144.626 33.7907 143.513C34.4841 143.155 35.2518 142.957 35.9575 142.71C37.4928 142.315 37.9395 140.743 38.7321 140.261C38.2119 140.657 37.6418 141.622 36.8739 142.327C36.1308 142.747 35.1899 142.908 34.3232 143.229C33.5183 143.6 32.6888 143.748 31.7851 143.735C31.2653 143.623 30.634 143.524 30.1142 143.412C30.7226 140.751 31.1577 138.052 33.6099 136.259C33.87 136.061 34.1797 135.801 34.5139 135.765C34.7245 135.629 34.9473 135.604 35.1701 135.579C34.9599 135.208 34.7863 135.678 34.5512 135.591C32.7312 135.961 30.9236 136.443 29.687 134.437C29.0941 132.641 29.9242 131.478 31.3361 130.477C31.7572 130.205 31.2989 130.65 31.6458 130.217C32.1291 129.487 31.4851 129.783 31.2127 129.87C30.8908 130.018 30.6184 130.105 30.4079 130.241C29.3429 130.809 28.8347 131.824 28.0913 132.752C27.8435 133.061 27.6453 133.309 27.3975 133.618C25.8738 135.14 25.0946 134.211 24.4271 132.762C24.2046 132.279 23.9698 131.685 23.7473 131.202C23.7856 129.506 24.0344 127.674 24.7535 126.016Z" stroke="white" stroke-width="2" mask="url(#path-1-inside-1_395_7601)"/>
<mask id="path-2-inside-2_395_7601" fill="white">
<path d="M447.45 287.737C447.627 286.414 34.1764 288.972 34 287.561C34 286.238 34 284.826 34.0882 283.503C34.1763 281.916 34.9699 280.416 34.8817 278.829C34.9699 277.241 34.8817 275.653 35.1463 274.066C35.4108 273.007 35.8517 271.861 35.7635 270.714C35.8517 269.303 35.7635 267.892 36.4689 266.657C37.2624 265.422 38.4969 264.805 39.9077 264.716C40.9658 264.716 41.9357 264.981 42.7292 265.598C44.9336 267.186 45.7272 265.863 46.2562 263.923C46.7853 263.217 47.4026 262.776 48.2843 262.864C49.6069 263.658 49.3423 265.157 49.7832 266.392C49.9596 266.657 50.1359 266.921 50.4004 267.098C51.5467 265.951 52.8693 265.069 54.1038 264.275C53.6629 263.658 53.1339 263.217 52.693 262.6C51.8994 261.188 50.9295 259.865 51.194 258.101C51.3704 257.748 51.5467 257.396 51.8994 257.043C54.2801 255.455 54.721 258.807 56.4845 258.807L57.0135 258.807C57.8071 260.483 59.7469 260.13 61.0695 261.012C63.6266 262.247 61.3341 265.334 63.2739 266.569C62.5685 265.157 62.3921 263.658 63.7148 262.335C64.861 261.453 66.0955 261.806 67.2418 261.982C68.0353 262.335 68.388 263.041 68.388 263.923C68.2998 264.099 68.2998 264.275 68.2998 264.275C67.9471 264.628 68.2117 264.805 68.388 264.54C68.7407 264.011 68.8289 263.305 69.4461 262.864C70.0633 262.6 70.6805 262.6 71.2978 262.864C72.5322 263.746 73.3258 264.981 73.5021 266.48C72.9731 269.92 74.4721 269.656 76.5883 268.156C76.8528 267.892 77.2055 267.715 77.5582 267.451C79.4098 266.48 80.5561 267.451 81.2615 269.215C81.8787 268.156 81.1733 267.362 81.0852 266.569C80.3798 264.275 82.5842 263.129 83.1132 261.277C83.2014 260.571 83.2014 259.777 83.1132 259.071C82.2315 257.396 82.2315 255.72 83.5541 254.22C84.2595 252.986 83.9949 251.574 84.0831 250.251C85.4057 249.105 86.3756 247.782 85.9347 245.929C86.1111 245.312 86.552 244.959 87.0811 244.695C89.0209 243.989 91.0489 243.548 92.4597 241.784C93.8705 240.108 95.4576 238.521 97.2211 237.197C99.161 236.051 99.4255 233.846 100.219 231.994C100.836 230.582 100.66 228.73 102.335 227.848C103.482 227.76 104.275 227.142 104.804 226.172C107.361 225.643 109.83 224.849 112.123 223.438C116.708 220.175 116.708 224.673 118.03 226.878C119.088 227.936 118.824 229.171 118.824 230.406C118.295 230.935 117.766 231.553 117.237 232.082C114.239 235.963 115.121 241.255 112.74 245.4L111.858 246.282C111.153 247.341 110.271 248.311 109.125 248.928C107.89 249.81 106.744 250.781 105.598 251.663C104.451 252.545 103.217 253.427 102.071 254.309C101.365 255.367 100.572 256.249 99.5136 256.866C99.0728 258.807 98.3674 260.659 96.7803 261.982C95.1931 263.129 95.4576 265.246 94.135 266.569L94.135 266.569C94.135 266.922 94.135 267.186 94.2232 267.539C95.1049 268.685 96.4275 267.803 97.5738 268.333C97.4003 266.771 96.8 265.294 97.6205 263.903C97.605 263.909 97.5894 263.916 97.5738 263.923L97.662 263.834C97.6478 263.857 97.634 263.88 97.6205 263.903C99.0003 263.333 99.7008 264.547 100.66 265.157C101.63 266.216 102.952 266.657 104.275 266.921C104.804 267.186 105.245 267.803 105.95 267.362C106.391 267.098 106.832 266.921 107.361 266.833C107.714 266.833 108.155 266.921 108.507 267.01C110.8 267.451 112.299 266.48 113.357 264.54C115.297 263.834 115.738 262.159 115.826 260.306C117.325 258.807 118.118 256.425 120.676 256.073C124.114 257.925 121.205 259.513 120.499 261.277C120.852 261.541 120.852 261.806 120.499 262.159C119.882 262.688 119.529 263.393 119.088 264.011C118.824 264.452 118.471 264.805 118.471 265.246L118.736 265.422C118.736 265.422 119.088 265.334 119.088 265.246C119.353 264.628 119.353 264.011 119.617 263.482C119.794 262.952 120.146 262.511 120.587 262.07C121.116 261.718 121.645 261.718 122.174 261.806C122.704 261.718 122.88 262.776 123.497 262.247C122.704 260.13 126.23 259.16 124.908 256.866C124.996 255.72 123.938 254.573 124.908 253.427C126.24 253.76 127.323 254.295 128.165 255.038C127.551 254.371 127.144 253.61 127.553 252.456C127.553 251.751 127.553 251.133 127.641 250.428C128.17 248.487 129.052 249.899 129.669 250.251C130.551 250.869 130.816 252.192 131.962 252.721C132.755 252.897 133.461 253.162 134.166 253.603C135.753 254.75 136.282 256.602 137.164 258.278C137.517 259.424 137.429 260.571 137.341 261.629L137.341 262.335L137.429 262.511L137.429 262.247C137.429 261.188 137.517 260.218 137.429 259.248C137.429 258.278 136.9 257.484 136.459 256.602C135.93 255.279 135.048 254.044 134.872 252.633C135.401 250.075 135.489 247.164 139.192 246.988C140.25 248.399 141.661 249.634 141.837 251.486C142.19 254.22 142.631 256.866 143.16 259.513C143.336 259.865 143.513 260.306 144.042 260.13C142.895 257.572 143.777 255.367 144.923 253.162C146.511 252.28 146.687 250.781 147.04 249.105C147.392 247.517 147.569 244.959 150.567 246.018C150.743 246.018 151.008 246.106 151.184 246.106C151.537 246.282 151.889 246.547 152.066 246.811C152.683 249.369 155.416 249.193 156.827 250.604C157.003 250.869 157.18 250.957 157.356 250.869C157.092 250.781 156.915 250.692 156.739 250.428C155.769 248.664 152.947 248.752 152.595 246.37C152.818 244.356 154.115 244.361 155.47 244.304C153.833 243.948 152.373 242.966 151.272 240.726L151.272 240.814C150.655 238.873 148.627 239.932 147.569 238.962C146.81 238.287 146.857 237.371 146.863 236.444C143.123 238.15 140.772 236.989 139.809 232.876C139.368 229.965 138.663 226.966 139.986 224.055C140.515 223.791 141.044 223.438 141.573 223.173C144.306 221.762 140.074 220.263 141.573 218.852C142.807 218.234 143.954 217.617 145.188 216.999C146.952 216.205 148.891 216.558 150.743 216.735C152.066 216.911 152.506 216.117 153.124 215.323C155.769 215.235 157.092 216.117 155.857 218.94C156.298 219.204 156.915 219.469 157.18 219.998C157.356 221.321 158.502 221.586 159.472 222.115C159.737 222.38 160.001 222.732 160.09 223.085C160.178 223.438 160.178 223.879 160.178 224.231L160.178 224.232C160.53 225.555 159.825 227.054 160.795 228.201C161.236 228.995 161.765 229.789 162.47 230.494L161.412 229.171C161.059 228.466 160.619 227.76 160.442 226.966C160.53 225.202 159.913 223.262 161.5 221.85C162.118 221.233 162.911 221.057 163.793 220.968C165.694 220.623 166.24 222.056 167.092 223.193C168.386 223.911 168.833 225.648 170.318 226.172C171.023 226.79 171.729 227.495 172.346 228.201C174.374 230.23 177.46 230.23 179.664 231.905C180.193 232.611 180.458 233.317 180.37 234.199C180.37 234.551 180.281 234.904 180.37 235.257C180.37 234.992 180.458 234.728 180.546 234.375C181.075 233.228 181.604 232.258 182.839 231.729C185.925 232.17 186.63 236.139 189.804 236.404C190.51 236.668 191.215 236.933 192.009 237.109C192.538 237.286 193.155 237.374 193.684 237.374C194.654 237.462 195.624 237.197 196.594 236.933C199.063 237.021 200.209 235.257 201.091 233.405C202.59 230.318 204.441 230.053 206.822 232.346C207.527 233.052 208.145 234.463 209.467 233.052C209.996 232.787 210.525 232.435 211.054 232.17C211.76 233.317 212.818 234.022 213.788 234.816L214.581 234.816C215.199 235.874 215.816 235.522 216.433 234.816C217.138 233.405 218.373 232.876 219.784 232.699C220.313 232.611 220.842 232.346 221.371 232.082C222.517 231.464 223.399 230.406 224.721 229.965C226.749 232.435 230.1 231.641 232.569 233.052C234.773 235.081 235.831 232.17 237.507 231.905C238.388 231.729 239.358 231.641 240.064 230.847C241.563 229.083 242.709 230.935 244.032 231.288C245.619 231.817 247.118 232.611 248.793 231.553C250.116 231.288 250.821 229.171 252.585 230.23C252.849 230.23 253.202 230.318 253.466 230.318C253.731 230.494 253.907 230.847 253.907 231.112C253.819 231.288 253.819 231.376 253.819 231.376C253.907 231.553 253.995 231.553 254.084 231.553C254.172 231.553 254.26 231.464 254.26 231.2C255.406 229.524 256.376 229.877 257.081 231.553C257.699 233.14 258.58 233.052 259.727 232.258C262.196 232.082 264.488 231.376 266.163 229.436C267.133 228.73 268.103 228.642 268.809 229.7C271.189 232.964 272.777 230.671 274.275 228.907C275.157 227.76 276.744 227.231 277.362 225.819L277.273 225.819C278.684 225.467 279.742 224.496 280.536 223.438C282.123 221.409 283.181 222.027 284.239 223.879C286.796 224.496 287.766 221.85 289.706 221.233C292.792 220.616 294.467 223.085 296.672 224.408C300.551 225.114 304.255 225.114 307.341 222.203C307.165 221.498 306.459 220.88 307.429 220.263C308.487 219.557 309.81 218.499 310.956 219.116C314.483 220.88 313.954 218.499 313.954 216.47C314.483 215.412 315.277 215.941 315.982 216.205C317.128 216.646 317.746 216.117 318.01 214.882C318.539 213.207 321.361 214 321.449 211.795C321.802 211.354 322.595 211.09 322.595 210.649C322.595 207.033 324.447 207.738 326.563 208.797C326.916 208.797 327.268 208.885 327.621 208.885C328.767 208.003 328.415 206.415 329.385 205.445C330.266 204.034 331.148 202.534 332.03 201.123C333.97 199.712 335.821 198.212 336.439 195.743L336.439 195.831C336.527 193.714 338.555 193.802 339.789 192.92C340.935 191.685 344.11 190.98 340.759 188.687C339.348 187.805 338.202 186.658 337.32 185.247C336.35 182.512 337.232 181.63 339.966 182.512C340.318 182.512 340.583 182.512 340.935 182.601C341.2 182.336 341.464 182.248 341.817 182.16C342.17 182.071 342.699 182.336 342.787 181.719C342.434 181.454 342.082 181.101 341.817 180.748L341.817 180.131C341.905 177.926 338.29 176.691 340.23 174.045C341.376 172.634 340.142 171.928 339.348 171.046C338.29 170.429 337.232 169.811 338.202 168.4C338.907 167.43 339.877 166.901 341.2 167.165C342.346 167.43 342.963 168.577 344.022 169.018C344.815 169.282 344.815 170.605 345.873 170.517C346.843 170.429 346.579 169.459 346.755 168.841C347.284 167.783 347.284 166.724 346.314 165.931L346.314 165.578L346.314 165.225C345.785 163.902 344.286 163.284 343.492 162.138C344.286 160.815 345.521 161.168 346.579 160.815C347.901 160.638 349.929 161.432 350.106 159.315C350.194 157.992 348.695 157.287 347.284 157.199C345.609 158.081 343.404 155.964 341.905 158.081L341.994 158.081C340.054 158.874 339.525 158.257 340.23 156.317C342.434 153.67 344.727 151.024 346.931 148.29C349.136 145.644 351.957 144.674 355.22 144.762C357.865 144.057 359.805 142.028 362.45 141.41C363.244 141.41 363.949 141.41 364.743 141.322C366.947 142.733 366.242 144.674 365.801 146.614L365.624 146.614C365.095 147.32 364.302 147.408 363.508 147.408C362.626 147.32 361.745 147.055 360.863 147.496C360.069 147.849 359.276 148.114 358.482 148.29C357.689 148.908 358.482 149.26 358.835 149.613C361.304 151.113 364.302 152.083 364.302 155.787C364.302 157.287 365.889 156.669 366.682 157.199C367.123 157.199 367.652 157.287 368.093 157.287C370.209 155.435 369.945 152.436 371.091 150.142C372.678 148.29 375.059 147.144 376.293 144.939C378.233 143.968 380.085 143.439 381.76 145.468C382.466 146.262 382.995 147.232 383.876 148.29C383.083 147.144 382.377 146.173 381.848 145.203C381.496 144.409 381.496 143.616 381.672 142.822C380.614 141.675 381.76 140.528 381.76 139.382C383.876 138.323 385.904 140.087 388.021 139.646C389.52 138.235 391.107 137.353 393.047 138.588C393.576 139.205 394.193 139.823 394.722 140.352C395.427 142.998 394.193 145.644 394.81 148.29C393.84 149.349 394.369 150.672 394.016 151.818C393.399 153.494 392.253 154.817 391.283 156.228C391.019 156.846 390.666 157.463 390.401 157.992C390.401 158.169 390.313 158.345 390.313 158.61C389.431 160.374 387.58 161.344 386.874 163.284C386.874 166.372 384.846 168.4 383.083 170.605C381.408 172.193 380.261 174.133 379.379 176.25C379.291 176.515 379.291 176.691 379.556 176.779C379.997 174.398 381.231 172.634 382.818 170.958C384.846 168.665 386.963 166.46 386.963 163.108C387.844 161.873 388.638 160.55 390.049 159.845C391.636 159.404 392.517 159.756 392.517 161.52C392.517 162.491 392.253 163.549 392.958 164.343C393.223 165.931 393.752 167.518 392.077 168.753C391.283 170.076 391.019 171.664 390.313 173.075C389.696 173.957 389.079 174.839 388.55 175.809C387.58 177.044 386.874 178.632 384.846 178.455C385.816 178.543 386.786 178.367 387.668 178.984C388.991 179.778 388.814 180.837 388.285 181.983C387.844 183.13 388.197 184.012 389.52 184.276C392.165 184.806 394.81 185.247 397.191 183.218C399.131 181.63 399.66 180.131 397.367 178.455C397.103 178.102 396.75 177.838 396.485 177.485C395.868 173.957 395.251 170.341 398.866 167.871C400.63 167.254 397.808 166.724 398.778 166.019C399.042 163.99 398.249 161.785 399.219 159.845L399.219 159.933C401.247 159.404 402.569 158.081 403.627 156.405C406.625 154.641 406.625 157.463 407.595 158.874C407.772 159.227 407.948 159.58 408.124 160.021C408.477 160.462 408.124 161.256 408.742 161.609C408.653 161.168 408.653 160.815 408.565 160.374C408.477 159.58 408.301 158.786 408.918 158.081C409.182 157.287 409.535 156.405 409.8 155.611C412.269 153.67 412.621 155.699 413.15 157.375C413.591 157.728 414.12 158.081 414.473 158.522C414.737 158.786 414.737 159.315 415.267 159.315C415.443 159.051 415.443 158.786 415.443 158.522L415.443 158.522C415.443 157.199 414.208 156.052 415.09 154.641C415.972 153.229 416.236 151.113 418.617 151.113C421.262 153.494 421.968 150.672 423.29 149.349L423.291 149.349C423.82 149.26 424.349 149.172 424.878 149.172C425.759 148.467 426.729 148.378 427.787 148.467C429.903 149.525 431.314 148.026 432.99 147.144C435.282 146.262 435.899 148.555 437.222 149.525C437.927 150.495 438.809 151.201 440.044 151.113L440.396 151.113C442.16 151.554 441.631 154.023 443.306 154.464C443.482 154.553 443.747 154.553 444.011 154.553C446.392 155.964 445.863 157.904 444.893 159.845C443.923 161.344 445.158 162.226 445.863 163.284C447.274 164.784 445.599 165.666 445.158 166.813C443.394 168.047 443.394 169.194 445.158 170.429L445.158 170.341C445.775 172.193 446.128 173.957 444.981 175.721C446.48 178.455 444.011 181.542 446.039 184.188C445.951 184.982 445.334 185.159 444.893 185.511C445.687 185.247 446.48 185.335 447.274 185.335L449.39 186.129C450.272 189.128 451.065 192.215 448.861 195.037L449.655 199.271C449.39 200.594 449.037 202.005 448.332 203.152C447.979 205.71 444.276 208.091 447.891 210.913C447.979 213.559 451.594 213.648 451.683 216.294C452.829 216.999 453.799 218.058 454.945 218.852C455.65 219.91 456.532 220.88 457.59 221.498C460.147 222.644 463.057 222.203 465.526 223.262L465.438 223.262C466.496 224.232 467.907 223.614 469.053 224.144C469.847 224.761 470.728 225.29 471.522 225.908C473.374 226.349 475.225 226.702 474.696 229.348C474.432 230.671 475.137 231.553 476.107 232.346C476.371 232.699 476.548 233.052 476.812 233.405C477.077 232.699 476.283 232.258 476.283 231.641C475.931 229.348 477.518 227.231 476.901 224.937L476.901 225.026C476.195 223.526 476.195 222.027 476.901 220.616L476.812 220.704C477.518 219.204 480.516 221.85 480.339 218.763C480.163 218.234 479.458 217.705 480.251 217.088C481.574 214.882 483.954 216.294 485.63 215.323L487.217 215.323C490.832 215.941 492.067 218.94 493.477 221.674C493.477 223.262 495.064 223.438 495.946 224.144C497.71 225.555 496.828 228.289 498.768 229.612L498.768 230.053C499.385 234.728 502.295 237.727 505.822 240.461C506.174 240.726 506.527 240.902 506.703 241.343C506.703 242.137 506.703 243.019 507.409 243.548C508.643 244.43 507.409 246.106 508.467 247.076C508.996 247.693 509.525 248.223 509.966 248.84C510.054 250.604 510.936 252.015 511.906 253.338C512.435 255.102 510.583 255.632 510.142 256.866C508.731 259.248 505.028 258.719 503.97 261.629C502.912 261.894 502.03 262.688 500.884 262.6C498.856 262.688 496.74 262.335 494.712 262.864C493.389 263.217 491.89 262.952 490.568 263.482C489.157 263.393 487.746 263.834 486.423 263.129L488.01 261.806C483.778 261.277 473.903 266.392 471.963 270.009C470.993 271.861 468.965 272.478 467.113 273.007C464.38 273.801 462.087 275.212 460.059 277.065C457.414 278.211 456.179 281.21 453.446 282.445C451.33 284.121 450.007 286.59 447.45 287.737Z"/>
</mask>
<path d="M447.45 287.737C447.627 286.414 34.1764 288.972 34 287.561C34 286.238 34 284.826 34.0882 283.503C34.1763 281.916 34.9699 280.416 34.8817 278.829C34.9699 277.241 34.8817 275.653 35.1463 274.066C35.4108 273.007 35.8517 271.861 35.7635 270.714C35.8517 269.303 35.7635 267.892 36.4689 266.657C37.2624 265.422 38.4969 264.805 39.9077 264.716C40.9658 264.716 41.9357 264.981 42.7292 265.598C44.9336 267.186 45.7272 265.863 46.2562 263.923C46.7853 263.217 47.4026 262.776 48.2843 262.864C49.6069 263.658 49.3423 265.157 49.7832 266.392C49.9596 266.657 50.1359 266.921 50.4004 267.098C51.5467 265.951 52.8693 265.069 54.1038 264.275C53.6629 263.658 53.1339 263.217 52.693 262.6C51.8994 261.188 50.9295 259.865 51.194 258.101C51.3704 257.748 51.5467 257.396 51.8994 257.043C54.2801 255.455 54.721 258.807 56.4845 258.807L57.0135 258.807C57.8071 260.483 59.7469 260.13 61.0695 261.012C63.6266 262.247 61.3341 265.334 63.2739 266.569C62.5685 265.157 62.3921 263.658 63.7148 262.335C64.861 261.453 66.0955 261.806 67.2418 261.982C68.0353 262.335 68.388 263.041 68.388 263.923C68.2998 264.099 68.2998 264.275 68.2998 264.275C67.9471 264.628 68.2117 264.805 68.388 264.54C68.7407 264.011 68.8289 263.305 69.4461 262.864C70.0633 262.6 70.6805 262.6 71.2978 262.864C72.5322 263.746 73.3258 264.981 73.5021 266.48C72.9731 269.92 74.4721 269.656 76.5883 268.156C76.8528 267.892 77.2055 267.715 77.5582 267.451C79.4098 266.48 80.5561 267.451 81.2615 269.215C81.8787 268.156 81.1733 267.362 81.0852 266.569C80.3798 264.275 82.5842 263.129 83.1132 261.277C83.2014 260.571 83.2014 259.777 83.1132 259.071C82.2315 257.396 82.2315 255.72 83.5541 254.22C84.2595 252.986 83.9949 251.574 84.0831 250.251C85.4057 249.105 86.3756 247.782 85.9347 245.929C86.1111 245.312 86.552 244.959 87.0811 244.695C89.0209 243.989 91.0489 243.548 92.4597 241.784C93.8705 240.108 95.4576 238.521 97.2211 237.197C99.161 236.051 99.4255 233.846 100.219 231.994C100.836 230.582 100.66 228.73 102.335 227.848C103.482 227.76 104.275 227.142 104.804 226.172C107.361 225.643 109.83 224.849 112.123 223.438C116.708 220.175 116.708 224.673 118.03 226.878C119.088 227.936 118.824 229.171 118.824 230.406C118.295 230.935 117.766 231.553 117.237 232.082C114.239 235.963 115.121 241.255 112.74 245.4L111.858 246.282C111.153 247.341 110.271 248.311 109.125 248.928C107.89 249.81 106.744 250.781 105.598 251.663C104.451 252.545 103.217 253.427 102.071 254.309C101.365 255.367 100.572 256.249 99.5136 256.866C99.0728 258.807 98.3674 260.659 96.7803 261.982C95.1931 263.129 95.4576 265.246 94.135 266.569L94.135 266.569C94.135 266.922 94.135 267.186 94.2232 267.539C95.1049 268.685 96.4275 267.803 97.5738 268.333C97.4003 266.771 96.8 265.294 97.6205 263.903C97.605 263.909 97.5894 263.916 97.5738 263.923L97.662 263.834C97.6478 263.857 97.634 263.88 97.6205 263.903C99.0003 263.333 99.7008 264.547 100.66 265.157C101.63 266.216 102.952 266.657 104.275 266.921C104.804 267.186 105.245 267.803 105.95 267.362C106.391 267.098 106.832 266.921 107.361 266.833C107.714 266.833 108.155 266.921 108.507 267.01C110.8 267.451 112.299 266.48 113.357 264.54C115.297 263.834 115.738 262.159 115.826 260.306C117.325 258.807 118.118 256.425 120.676 256.073C124.114 257.925 121.205 259.513 120.499 261.277C120.852 261.541 120.852 261.806 120.499 262.159C119.882 262.688 119.529 263.393 119.088 264.011C118.824 264.452 118.471 264.805 118.471 265.246L118.736 265.422C118.736 265.422 119.088 265.334 119.088 265.246C119.353 264.628 119.353 264.011 119.617 263.482C119.794 262.952 120.146 262.511 120.587 262.07C121.116 261.718 121.645 261.718 122.174 261.806C122.704 261.718 122.88 262.776 123.497 262.247C122.704 260.13 126.23 259.16 124.908 256.866C124.996 255.72 123.938 254.573 124.908 253.427C126.24 253.76 127.323 254.295 128.165 255.038C127.551 254.371 127.144 253.61 127.553 252.456C127.553 251.751 127.553 251.133 127.641 250.428C128.17 248.487 129.052 249.899 129.669 250.251C130.551 250.869 130.816 252.192 131.962 252.721C132.755 252.897 133.461 253.162 134.166 253.603C135.753 254.75 136.282 256.602 137.164 258.278C137.517 259.424 137.429 260.571 137.341 261.629L137.341 262.335L137.429 262.511L137.429 262.247C137.429 261.188 137.517 260.218 137.429 259.248C137.429 258.278 136.9 257.484 136.459 256.602C135.93 255.279 135.048 254.044 134.872 252.633C135.401 250.075 135.489 247.164 139.192 246.988C140.25 248.399 141.661 249.634 141.837 251.486C142.19 254.22 142.631 256.866 143.16 259.513C143.336 259.865 143.513 260.306 144.042 260.13C142.895 257.572 143.777 255.367 144.923 253.162C146.511 252.28 146.687 250.781 147.04 249.105C147.392 247.517 147.569 244.959 150.567 246.018C150.743 246.018 151.008 246.106 151.184 246.106C151.537 246.282 151.889 246.547 152.066 246.811C152.683 249.369 155.416 249.193 156.827 250.604C157.003 250.869 157.18 250.957 157.356 250.869C157.092 250.781 156.915 250.692 156.739 250.428C155.769 248.664 152.947 248.752 152.595 246.37C152.818 244.356 154.115 244.361 155.47 244.304C153.833 243.948 152.373 242.966 151.272 240.726L151.272 240.814C150.655 238.873 148.627 239.932 147.569 238.962C146.81 238.287 146.857 237.371 146.863 236.444C143.123 238.15 140.772 236.989 139.809 232.876C139.368 229.965 138.663 226.966 139.986 224.055C140.515 223.791 141.044 223.438 141.573 223.173C144.306 221.762 140.074 220.263 141.573 218.852C142.807 218.234 143.954 217.617 145.188 216.999C146.952 216.205 148.891 216.558 150.743 216.735C152.066 216.911 152.506 216.117 153.124 215.323C155.769 215.235 157.092 216.117 155.857 218.94C156.298 219.204 156.915 219.469 157.18 219.998C157.356 221.321 158.502 221.586 159.472 222.115C159.737 222.38 160.001 222.732 160.09 223.085C160.178 223.438 160.178 223.879 160.178 224.231L160.178 224.232C160.53 225.555 159.825 227.054 160.795 228.201C161.236 228.995 161.765 229.789 162.47 230.494L161.412 229.171C161.059 228.466 160.619 227.76 160.442 226.966C160.53 225.202 159.913 223.262 161.5 221.85C162.118 221.233 162.911 221.057 163.793 220.968C165.694 220.623 166.24 222.056 167.092 223.193C168.386 223.911 168.833 225.648 170.318 226.172C171.023 226.79 171.729 227.495 172.346 228.201C174.374 230.23 177.46 230.23 179.664 231.905C180.193 232.611 180.458 233.317 180.37 234.199C180.37 234.551 180.281 234.904 180.37 235.257C180.37 234.992 180.458 234.728 180.546 234.375C181.075 233.228 181.604 232.258 182.839 231.729C185.925 232.17 186.63 236.139 189.804 236.404C190.51 236.668 191.215 236.933 192.009 237.109C192.538 237.286 193.155 237.374 193.684 237.374C194.654 237.462 195.624 237.197 196.594 236.933C199.063 237.021 200.209 235.257 201.091 233.405C202.59 230.318 204.441 230.053 206.822 232.346C207.527 233.052 208.145 234.463 209.467 233.052C209.996 232.787 210.525 232.435 211.054 232.17C211.76 233.317 212.818 234.022 213.788 234.816L214.581 234.816C215.199 235.874 215.816 235.522 216.433 234.816C217.138 233.405 218.373 232.876 219.784 232.699C220.313 232.611 220.842 232.346 221.371 232.082C222.517 231.464 223.399 230.406 224.721 229.965C226.749 232.435 230.1 231.641 232.569 233.052C234.773 235.081 235.831 232.17 237.507 231.905C238.388 231.729 239.358 231.641 240.064 230.847C241.563 229.083 242.709 230.935 244.032 231.288C245.619 231.817 247.118 232.611 248.793 231.553C250.116 231.288 250.821 229.171 252.585 230.23C252.849 230.23 253.202 230.318 253.466 230.318C253.731 230.494 253.907 230.847 253.907 231.112C253.819 231.288 253.819 231.376 253.819 231.376C253.907 231.553 253.995 231.553 254.084 231.553C254.172 231.553 254.26 231.464 254.26 231.2C255.406 229.524 256.376 229.877 257.081 231.553C257.699 233.14 258.58 233.052 259.727 232.258C262.196 232.082 264.488 231.376 266.163 229.436C267.133 228.73 268.103 228.642 268.809 229.7C271.189 232.964 272.777 230.671 274.275 228.907C275.157 227.76 276.744 227.231 277.362 225.819L277.273 225.819C278.684 225.467 279.742 224.496 280.536 223.438C282.123 221.409 283.181 222.027 284.239 223.879C286.796 224.496 287.766 221.85 289.706 221.233C292.792 220.616 294.467 223.085 296.672 224.408C300.551 225.114 304.255 225.114 307.341 222.203C307.165 221.498 306.459 220.88 307.429 220.263C308.487 219.557 309.81 218.499 310.956 219.116C314.483 220.88 313.954 218.499 313.954 216.47C314.483 215.412 315.277 215.941 315.982 216.205C317.128 216.646 317.746 216.117 318.01 214.882C318.539 213.207 321.361 214 321.449 211.795C321.802 211.354 322.595 211.09 322.595 210.649C322.595 207.033 324.447 207.738 326.563 208.797C326.916 208.797 327.268 208.885 327.621 208.885C328.767 208.003 328.415 206.415 329.385 205.445C330.266 204.034 331.148 202.534 332.03 201.123C333.97 199.712 335.821 198.212 336.439 195.743L336.439 195.831C336.527 193.714 338.555 193.802 339.789 192.92C340.935 191.685 344.11 190.98 340.759 188.687C339.348 187.805 338.202 186.658 337.32 185.247C336.35 182.512 337.232 181.63 339.966 182.512C340.318 182.512 340.583 182.512 340.935 182.601C341.2 182.336 341.464 182.248 341.817 182.16C342.17 182.071 342.699 182.336 342.787 181.719C342.434 181.454 342.082 181.101 341.817 180.748L341.817 180.131C341.905 177.926 338.29 176.691 340.23 174.045C341.376 172.634 340.142 171.928 339.348 171.046C338.29 170.429 337.232 169.811 338.202 168.4C338.907 167.43 339.877 166.901 341.2 167.165C342.346 167.43 342.963 168.577 344.022 169.018C344.815 169.282 344.815 170.605 345.873 170.517C346.843 170.429 346.579 169.459 346.755 168.841C347.284 167.783 347.284 166.724 346.314 165.931L346.314 165.578L346.314 165.225C345.785 163.902 344.286 163.284 343.492 162.138C344.286 160.815 345.521 161.168 346.579 160.815C347.901 160.638 349.929 161.432 350.106 159.315C350.194 157.992 348.695 157.287 347.284 157.199C345.609 158.081 343.404 155.964 341.905 158.081L341.994 158.081C340.054 158.874 339.525 158.257 340.23 156.317C342.434 153.67 344.727 151.024 346.931 148.29C349.136 145.644 351.957 144.674 355.22 144.762C357.865 144.057 359.805 142.028 362.45 141.41C363.244 141.41 363.949 141.41 364.743 141.322C366.947 142.733 366.242 144.674 365.801 146.614L365.624 146.614C365.095 147.32 364.302 147.408 363.508 147.408C362.626 147.32 361.745 147.055 360.863 147.496C360.069 147.849 359.276 148.114 358.482 148.29C357.689 148.908 358.482 149.26 358.835 149.613C361.304 151.113 364.302 152.083 364.302 155.787C364.302 157.287 365.889 156.669 366.682 157.199C367.123 157.199 367.652 157.287 368.093 157.287C370.209 155.435 369.945 152.436 371.091 150.142C372.678 148.29 375.059 147.144 376.293 144.939C378.233 143.968 380.085 143.439 381.76 145.468C382.466 146.262 382.995 147.232 383.876 148.29C383.083 147.144 382.377 146.173 381.848 145.203C381.496 144.409 381.496 143.616 381.672 142.822C380.614 141.675 381.76 140.528 381.76 139.382C383.876 138.323 385.904 140.087 388.021 139.646C389.52 138.235 391.107 137.353 393.047 138.588C393.576 139.205 394.193 139.823 394.722 140.352C395.427 142.998 394.193 145.644 394.81 148.29C393.84 149.349 394.369 150.672 394.016 151.818C393.399 153.494 392.253 154.817 391.283 156.228C391.019 156.846 390.666 157.463 390.401 157.992C390.401 158.169 390.313 158.345 390.313 158.61C389.431 160.374 387.58 161.344 386.874 163.284C386.874 166.372 384.846 168.4 383.083 170.605C381.408 172.193 380.261 174.133 379.379 176.25C379.291 176.515 379.291 176.691 379.556 176.779C379.997 174.398 381.231 172.634 382.818 170.958C384.846 168.665 386.963 166.46 386.963 163.108C387.844 161.873 388.638 160.55 390.049 159.845C391.636 159.404 392.517 159.756 392.517 161.52C392.517 162.491 392.253 163.549 392.958 164.343C393.223 165.931 393.752 167.518 392.077 168.753C391.283 170.076 391.019 171.664 390.313 173.075C389.696 173.957 389.079 174.839 388.55 175.809C387.58 177.044 386.874 178.632 384.846 178.455C385.816 178.543 386.786 178.367 387.668 178.984C388.991 179.778 388.814 180.837 388.285 181.983C387.844 183.13 388.197 184.012 389.52 184.276C392.165 184.806 394.81 185.247 397.191 183.218C399.131 181.63 399.66 180.131 397.367 178.455C397.103 178.102 396.75 177.838 396.485 177.485C395.868 173.957 395.251 170.341 398.866 167.871C400.63 167.254 397.808 166.724 398.778 166.019C399.042 163.99 398.249 161.785 399.219 159.845L399.219 159.933C401.247 159.404 402.569 158.081 403.627 156.405C406.625 154.641 406.625 157.463 407.595 158.874C407.772 159.227 407.948 159.58 408.124 160.021C408.477 160.462 408.124 161.256 408.742 161.609C408.653 161.168 408.653 160.815 408.565 160.374C408.477 159.58 408.301 158.786 408.918 158.081C409.182 157.287 409.535 156.405 409.8 155.611C412.269 153.67 412.621 155.699 413.15 157.375C413.591 157.728 414.12 158.081 414.473 158.522C414.737 158.786 414.737 159.315 415.267 159.315C415.443 159.051 415.443 158.786 415.443 158.522L415.443 158.522C415.443 157.199 414.208 156.052 415.09 154.641C415.972 153.229 416.236 151.113 418.617 151.113C421.262 153.494 421.968 150.672 423.29 149.349L423.291 149.349C423.82 149.26 424.349 149.172 424.878 149.172C425.759 148.467 426.729 148.378 427.787 148.467C429.903 149.525 431.314 148.026 432.99 147.144C435.282 146.262 435.899 148.555 437.222 149.525C437.927 150.495 438.809 151.201 440.044 151.113L440.396 151.113C442.16 151.554 441.631 154.023 443.306 154.464C443.482 154.553 443.747 154.553 444.011 154.553C446.392 155.964 445.863 157.904 444.893 159.845C443.923 161.344 445.158 162.226 445.863 163.284C447.274 164.784 445.599 165.666 445.158 166.813C443.394 168.047 443.394 169.194 445.158 170.429L445.158 170.341C445.775 172.193 446.128 173.957 444.981 175.721C446.48 178.455 444.011 181.542 446.039 184.188C445.951 184.982 445.334 185.159 444.893 185.511C445.687 185.247 446.48 185.335 447.274 185.335L449.39 186.129C450.272 189.128 451.065 192.215 448.861 195.037L449.655 199.271C449.39 200.594 449.037 202.005 448.332 203.152C447.979 205.71 444.276 208.091 447.891 210.913C447.979 213.559 451.594 213.648 451.683 216.294C452.829 216.999 453.799 218.058 454.945 218.852C455.65 219.91 456.532 220.88 457.59 221.498C460.147 222.644 463.057 222.203 465.526 223.262L465.438 223.262C466.496 224.232 467.907 223.614 469.053 224.144C469.847 224.761 470.728 225.29 471.522 225.908C473.374 226.349 475.225 226.702 474.696 229.348C474.432 230.671 475.137 231.553 476.107 232.346C476.371 232.699 476.548 233.052 476.812 233.405C477.077 232.699 476.283 232.258 476.283 231.641C475.931 229.348 477.518 227.231 476.901 224.937L476.901 225.026C476.195 223.526 476.195 222.027 476.901 220.616L476.812 220.704C477.518 219.204 480.516 221.85 480.339 218.763C480.163 218.234 479.458 217.705 480.251 217.088C481.574 214.882 483.954 216.294 485.63 215.323L487.217 215.323C490.832 215.941 492.067 218.94 493.477 221.674C493.477 223.262 495.064 223.438 495.946 224.144C497.71 225.555 496.828 228.289 498.768 229.612L498.768 230.053C499.385 234.728 502.295 237.727 505.822 240.461C506.174 240.726 506.527 240.902 506.703 241.343C506.703 242.137 506.703 243.019 507.409 243.548C508.643 244.43 507.409 246.106 508.467 247.076C508.996 247.693 509.525 248.223 509.966 248.84C510.054 250.604 510.936 252.015 511.906 253.338C512.435 255.102 510.583 255.632 510.142 256.866C508.731 259.248 505.028 258.719 503.97 261.629C502.912 261.894 502.03 262.688 500.884 262.6C498.856 262.688 496.74 262.335 494.712 262.864C493.389 263.217 491.89 262.952 490.568 263.482C489.157 263.393 487.746 263.834 486.423 263.129L488.01 261.806C483.778 261.277 473.903 266.392 471.963 270.009C470.993 271.861 468.965 272.478 467.113 273.007C464.38 273.801 462.087 275.212 460.059 277.065C457.414 278.211 456.179 281.21 453.446 282.445C451.33 284.121 450.007 286.59 447.45 287.737Z" stroke="white" stroke-width="2" mask="url(#path-2-inside-2_395_7601)"/>
<mask id="path-3-inside-3_395_7601" fill="white">
<path d="M364.869 55.1169L369.139 59.042C370.199 60.696 371.463 62.1291 373.268 62.9732C374.219 63.7116 375.028 64.4561 375.844 65.3418C376.254 66.6693 375.466 68.1179 376.226 69.3598C376.733 71.3202 379.053 72.638 378.165 75.0816C377.992 76.009 377.96 76.9304 378.561 77.7544C379.776 78.0571 380.648 78.5866 380.566 80.0055C380.805 80.6324 381.111 81.1857 381.424 81.8803C381.563 83.5022 381.775 85.1918 379.526 85.5696C378.752 85.6729 378.243 85.3405 377.863 84.7195C377.539 83.7423 377.214 82.7652 375.863 82.6097C375.433 82.4862 375.071 82.2891 374.777 82.0184C373.893 81.2063 373.428 80.2351 372.747 79.2021C372.441 78.6488 372.005 78.3841 372.447 78.7901C372.17 78.9433 372.108 79.1582 372.341 79.6438C373.467 82.852 372.977 86.3406 374.521 89.3896C374.698 90.2315 374.733 91.0793 374.91 91.9211C373.103 92.7049 373.793 95.6483 371.323 95.823L371.391 95.7493C369.978 95.8088 369.564 97.7371 367.924 97.4523C365.454 97.627 363.58 98.4843 363.416 101.322C363.42 103.091 364.345 104.893 363.568 106.624C358.968 110.002 355.592 108.799 354.026 103.557C352.008 106.049 360.316 108.388 354.212 111.335L354.353 111.329C352.817 111.818 351.195 111.957 349.641 112.022C348.957 111.873 348.464 111.563 348.082 111.164C348.464 111.892 348.772 112.673 348.926 113.539C348.155 115.411 348.183 117.746 345.437 118.073L345.504 118C342.064 118.61 340.039 116.893 338.319 114.745C338.41 115.083 338.428 115.459 338.338 115.895C337.992 117.75 335.248 116.45 334.907 118.446C335.152 119.214 334.972 120 334.793 120.786L334.793 120.786L334.319 121.301C332.136 123.233 331.408 121.07 330.365 119.84C329.263 117.197 326.519 115.897 325.361 113.61C326.169 115.982 328.834 117.073 330.065 119.428C332.596 124.063 332.422 124.991 327.516 127.816C326.81 127.845 326.165 127.66 325.447 127.407C322.747 125.469 322.746 125.468 320.731 121.307L320.731 121.307C321.766 124.023 321.766 124.023 319.343 125.329C319.202 125.334 319.134 125.408 319.871 126.085C321.717 127.918 323.078 129.984 322.626 132.692L321.408 134.018C321.234 134.945 320.528 134.975 319.754 135.078C318.759 134.978 317.825 134.664 317.157 133.913C316.335 132.886 316.309 133.949 315.971 134.317C314.815 135.136 317.763 136.405 315.735 137.137C315.759 137.143 315.783 137.149 315.807 137.155L315.666 137.161C315.69 137.153 315.713 137.145 315.735 137.137C313.122 136.455 311.009 134.659 308.52 133.852C306.868 133.285 306.52 131.742 305.828 130.427C305.516 129.732 305.418 129.099 305.456 128.319C305.415 127.33 305.656 126.329 306.191 125.599C306.32 125.31 306.523 125.09 306.579 124.733C306.235 124.96 306.111 125.39 305.767 125.617C305.355 125.917 304.931 125.935 304.44 126.026C301.154 125.315 301.073 121.709 299.171 120.232C300.005 121.542 301.336 122.901 301.56 124.874C300.593 127.108 303.333 126.639 303.737 127.825C304.184 128.373 304.491 128.926 304.871 129.547L304.871 129.547C305.778 130.924 306.685 132.302 306.689 134.071C305.901 135.519 304.567 135.788 303.228 135.915C303.031 136.277 302.147 135.465 302.46 136.16C302.999 137.198 304.436 137.704 304.286 139.197C304.069 140.763 305.183 143.688 301.499 141.933C300.996 141.741 298.865 141.548 300.134 143.122C302.372 145.859 298.613 145.663 298.537 147.224C294.829 141.506 291.053 135.861 287.344 130.143C288.015 129.265 289.004 129.224 290.128 129.035C287.761 126.587 285.675 129.152 283.561 129.382C281.85 127.402 279.916 126.846 277.726 128.637C276.564 129.606 275.39 130.292 273.812 129.792C273.52 127.894 276.125 127.572 276.195 125.87C274.846 124.087 273.237 127.905 272.073 125.477C272.782 123.82 274.792 122.815 274.273 120.572C275.895 120.433 278.145 123.453 279.047 119.664C279.566 118.878 280.229 118.48 280.957 118.265C279.381 118.428 277.783 118.477 276.168 118.511C274.122 118.668 273.203 117.008 270.945 115.475C275.572 114.431 280.2 116.784 282.848 112.426C283.419 110.358 284.936 109.776 286.537 109.381C285.119 109.661 283.599 109.562 281.993 108.924C280.833 108.265 279.531 107.612 278.371 106.953C279.245 105.855 280.413 105.027 281.667 104.55C282.585 102.812 286.78 103.273 285.003 99.7381C284.797 98.1898 285.543 95.7521 282.229 97.7316C281.332 98.2648 278.004 101.59 276.689 97.257C277.477 95.8084 278.861 95.0425 280.176 94.3501C279.755 92.7401 277.309 93.48 277.791 91.478C278.215 91.4602 278.712 91.51 279.136 91.4922C280.181 91.0944 281.114 91.409 282.177 91.435C283.872 91.3637 285.476 90.8008 287.166 90.5882L287.166 90.5881C287.59 90.5703 288.014 90.5525 288.444 90.6759C291.453 91.5401 291.051 88.7261 291.913 87.3451C292.11 86.9829 292.448 86.6149 292.793 86.3881C294.047 85.9107 295.342 86.4224 296.546 86.4425C296.829 86.4306 297.038 86.351 297.32 86.3392C297.02 85.9272 296.602 86.0862 296.24 85.8891C295.73 85.5567 295.424 85.0034 295.327 84.3705C295.241 84.0203 295.297 83.6641 295.353 83.3079C294.413 82.852 294.258 84.2033 293.478 84.1653C291.703 84.0277 290.052 86.8572 288.114 84.5325C285.906 82.5022 281.95 82.6687 280.812 79.1779C280.874 78.963 281.009 78.8157 281.071 78.6008C282.11 78.0617 283.178 78.2291 284.253 78.5377C286.101 78.743 287.659 80.4468 289.676 79.5835C292.545 78.8257 290.572 75.6532 292.496 74.2983C294.968 72.4957 291.71 74.1191 291.969 73.542C291.545 73.5598 291.03 73.0861 290.63 73.6691C290.848 75.5 290.558 76.9985 288.683 77.8559C287.361 78.4069 286.022 78.534 284.591 78.1696C281.994 77.005 281.74 74.3262 280.662 72.2484C279.474 69.2551 276.764 70.4308 274.927 70.5081C271.677 70.6449 269.522 69.8862 268.746 66.5925C268.245 64.7735 267.141 63.7584 265.163 63.8416C263.039 62.1616 262.258 58.7266 258.793 58.8016C256.053 59.2708 255.516 56.6039 254.117 55.3181C251.55 54.8599 363.786 56.2949 364.869 55.1169Z"/>
</mask>
<path d="M364.869 55.1169L369.139 59.042C370.199 60.696 371.463 62.1291 373.268 62.9732C374.219 63.7116 375.028 64.4561 375.844 65.3418C376.254 66.6693 375.466 68.1179 376.226 69.3598C376.733 71.3202 379.053 72.638 378.165 75.0816C377.992 76.009 377.96 76.9304 378.561 77.7544C379.776 78.0571 380.648 78.5866 380.566 80.0055C380.805 80.6324 381.111 81.1857 381.424 81.8803C381.563 83.5022 381.775 85.1918 379.526 85.5696C378.752 85.6729 378.243 85.3405 377.863 84.7195C377.539 83.7423 377.214 82.7652 375.863 82.6097C375.433 82.4862 375.071 82.2891 374.777 82.0184C373.893 81.2063 373.428 80.2351 372.747 79.2021C372.441 78.6488 372.005 78.3841 372.447 78.7901C372.17 78.9433 372.108 79.1582 372.341 79.6438C373.467 82.852 372.977 86.3406 374.521 89.3896C374.698 90.2315 374.733 91.0793 374.91 91.9211C373.103 92.7049 373.793 95.6483 371.323 95.823L371.391 95.7493C369.978 95.8088 369.564 97.7371 367.924 97.4523C365.454 97.627 363.58 98.4843 363.416 101.322C363.42 103.091 364.345 104.893 363.568 106.624C358.968 110.002 355.592 108.799 354.026 103.557C352.008 106.049 360.316 108.388 354.212 111.335L354.353 111.329C352.817 111.818 351.195 111.957 349.641 112.022C348.957 111.873 348.464 111.563 348.082 111.164C348.464 111.892 348.772 112.673 348.926 113.539C348.155 115.411 348.183 117.746 345.437 118.073L345.504 118C342.064 118.61 340.039 116.893 338.319 114.745C338.41 115.083 338.428 115.459 338.338 115.895C337.992 117.75 335.248 116.45 334.907 118.446C335.152 119.214 334.972 120 334.793 120.786L334.793 120.786L334.319 121.301C332.136 123.233 331.408 121.07 330.365 119.84C329.263 117.197 326.519 115.897 325.361 113.61C326.169 115.982 328.834 117.073 330.065 119.428C332.596 124.063 332.422 124.991 327.516 127.816C326.81 127.845 326.165 127.66 325.447 127.407C322.747 125.469 322.746 125.468 320.731 121.307L320.731 121.307C321.766 124.023 321.766 124.023 319.343 125.329C319.202 125.334 319.134 125.408 319.871 126.085C321.717 127.918 323.078 129.984 322.626 132.692L321.408 134.018C321.234 134.945 320.528 134.975 319.754 135.078C318.759 134.978 317.825 134.664 317.157 133.913C316.335 132.886 316.309 133.949 315.971 134.317C314.815 135.136 317.763 136.405 315.735 137.137C315.759 137.143 315.783 137.149 315.807 137.155L315.666 137.161C315.69 137.153 315.713 137.145 315.735 137.137C313.122 136.455 311.009 134.659 308.52 133.852C306.868 133.285 306.52 131.742 305.828 130.427C305.516 129.732 305.418 129.099 305.456 128.319C305.415 127.33 305.656 126.329 306.191 125.599C306.32 125.31 306.523 125.09 306.579 124.733C306.235 124.96 306.111 125.39 305.767 125.617C305.355 125.917 304.931 125.935 304.44 126.026C301.154 125.315 301.073 121.709 299.171 120.232C300.005 121.542 301.336 122.901 301.56 124.874C300.593 127.108 303.333 126.639 303.737 127.825C304.184 128.373 304.491 128.926 304.871 129.547L304.871 129.547C305.778 130.924 306.685 132.302 306.689 134.071C305.901 135.519 304.567 135.788 303.228 135.915C303.031 136.277 302.147 135.465 302.46 136.16C302.999 137.198 304.436 137.704 304.286 139.197C304.069 140.763 305.183 143.688 301.499 141.933C300.996 141.741 298.865 141.548 300.134 143.122C302.372 145.859 298.613 145.663 298.537 147.224C294.829 141.506 291.053 135.861 287.344 130.143C288.015 129.265 289.004 129.224 290.128 129.035C287.761 126.587 285.675 129.152 283.561 129.382C281.85 127.402 279.916 126.846 277.726 128.637C276.564 129.606 275.39 130.292 273.812 129.792C273.52 127.894 276.125 127.572 276.195 125.87C274.846 124.087 273.237 127.905 272.073 125.477C272.782 123.82 274.792 122.815 274.273 120.572C275.895 120.433 278.145 123.453 279.047 119.664C279.566 118.878 280.229 118.48 280.957 118.265C279.381 118.428 277.783 118.477 276.168 118.511C274.122 118.668 273.203 117.008 270.945 115.475C275.572 114.431 280.2 116.784 282.848 112.426C283.419 110.358 284.936 109.776 286.537 109.381C285.119 109.661 283.599 109.562 281.993 108.924C280.833 108.265 279.531 107.612 278.371 106.953C279.245 105.855 280.413 105.027 281.667 104.55C282.585 102.812 286.78 103.273 285.003 99.7381C284.797 98.1898 285.543 95.7521 282.229 97.7316C281.332 98.2648 278.004 101.59 276.689 97.257C277.477 95.8084 278.861 95.0425 280.176 94.3501C279.755 92.7401 277.309 93.48 277.791 91.478C278.215 91.4602 278.712 91.51 279.136 91.4922C280.181 91.0944 281.114 91.409 282.177 91.435C283.872 91.3637 285.476 90.8008 287.166 90.5882L287.166 90.5881C287.59 90.5703 288.014 90.5525 288.444 90.6759C291.453 91.5401 291.051 88.7261 291.913 87.3451C292.11 86.9829 292.448 86.6149 292.793 86.3881C294.047 85.9107 295.342 86.4224 296.546 86.4425C296.829 86.4306 297.038 86.351 297.32 86.3392C297.02 85.9272 296.602 86.0862 296.24 85.8891C295.73 85.5567 295.424 85.0034 295.327 84.3705C295.241 84.0203 295.297 83.6641 295.353 83.3079C294.413 82.852 294.258 84.2033 293.478 84.1653C291.703 84.0277 290.052 86.8572 288.114 84.5325C285.906 82.5022 281.95 82.6687 280.812 79.1779C280.874 78.963 281.009 78.8157 281.071 78.6008C282.11 78.0617 283.178 78.2291 284.253 78.5377C286.101 78.743 287.659 80.4468 289.676 79.5835C292.545 78.8257 290.572 75.6532 292.496 74.2983C294.968 72.4957 291.71 74.1191 291.969 73.542C291.545 73.5598 291.03 73.0861 290.63 73.6691C290.848 75.5 290.558 76.9985 288.683 77.8559C287.361 78.4069 286.022 78.534 284.591 78.1696C281.994 77.005 281.74 74.3262 280.662 72.2484C279.474 69.2551 276.764 70.4308 274.927 70.5081C271.677 70.6449 269.522 69.8862 268.746 66.5925C268.245 64.7735 267.141 63.7584 265.163 63.8416C263.039 62.1616 262.258 58.7266 258.793 58.8016C256.053 59.2708 255.516 56.6039 254.117 55.3181C251.55 54.8599 363.786 56.2949 364.869 55.1169Z" stroke="white" stroke-width="2" mask="url(#path-3-inside-3_395_7601)"/>
</svg>
