<svg width="522" height="292" viewBox="0 0 522 292" fill="none" xmlns="http://www.w3.org/2000/svg">
<path fill-rule="evenodd" clip-rule="evenodd" d="M260.008 166.126C258.443 166.126 256.885 166.157 255.335 166.218L255.242 163.801C256.823 163.739 258.412 163.707 260.008 163.707C261.604 163.707 263.193 163.739 264.774 163.801L264.682 166.218C263.131 166.157 261.573 166.126 260.008 166.126ZM283.201 168.439C280.169 167.826 277.096 167.33 273.986 166.958L274.266 164.555C277.438 164.936 280.574 165.441 283.667 166.067L283.201 168.439ZM246.03 166.958C242.92 167.33 239.847 167.826 236.815 168.439L236.349 166.067C239.442 165.441 242.578 164.936 245.751 164.555L246.03 166.958ZM227.741 170.66C224.735 171.525 221.778 172.508 218.875 173.604L218.044 171.337C221.007 170.218 224.024 169.215 227.091 168.332L227.741 170.66ZM301.142 173.604C298.238 172.508 295.281 171.525 292.275 170.66L292.925 168.332C295.992 169.215 299.009 170.218 301.972 171.337L301.142 173.604ZM210.262 177.257C207.434 178.592 204.666 180.038 201.964 181.589L200.791 179.484C203.548 177.901 206.371 176.426 209.257 175.063L210.262 177.257ZM318.053 181.589C315.35 180.038 312.582 178.592 309.754 177.257L310.759 175.063C313.645 176.426 316.469 177.901 319.226 179.484L318.053 181.589ZM333.516 192.176C331.083 190.211 328.572 188.342 325.989 186.573L327.321 184.568C329.956 186.372 332.517 188.279 335 190.283L333.516 192.176ZM194.027 186.573C191.445 188.342 188.934 190.211 186.5 192.176L185.017 190.283C187.499 188.279 190.06 186.372 192.695 184.568L194.027 186.573ZM179.428 198.359C177.151 200.512 174.957 202.755 172.852 205.083L171.097 203.447C173.244 201.073 175.481 198.785 177.803 196.589L179.428 198.359ZM347.164 205.083C345.059 202.755 342.865 200.512 340.588 198.359L342.213 196.589C344.535 198.785 346.772 201.073 348.919 203.447L347.164 205.083ZM166.813 212.307C164.896 214.791 163.073 217.353 161.347 219.988L159.363 218.65C161.122 215.962 162.982 213.349 164.938 210.815L166.813 212.307ZM358.669 219.988C356.944 217.353 355.12 214.791 353.203 212.307L355.079 210.815C357.034 213.349 358.894 215.962 360.653 218.65L358.669 219.988ZM156.49 228.078C154.98 230.83 153.572 233.649 152.271 236.529L150.105 235.521C151.431 232.583 152.868 229.708 154.408 226.901L156.49 228.078ZM367.745 236.529C366.445 233.649 365.037 230.83 363.526 228.078L365.608 226.901C367.149 229.708 368.585 232.583 369.911 235.521L367.745 236.529ZM148.718 245.292C147.653 248.244 146.697 251.251 145.856 254.306L143.561 253.655C144.419 250.538 145.394 247.472 146.481 244.46L148.718 245.292ZM374.16 254.306C373.319 251.251 372.363 248.244 371.298 245.292L373.536 244.46C374.622 247.472 375.597 250.538 376.455 253.655L374.16 254.306ZM143.699 263.526C143.104 266.605 142.623 269.726 142.261 272.885L139.894 272.605C140.263 269.384 140.753 266.201 141.361 263.06L143.699 263.526ZM377.755 272.885C377.394 269.726 376.913 266.605 376.317 263.526L378.655 263.06C379.263 266.201 379.753 269.384 380.123 272.605L377.755 272.885ZM141.543 282.332C141.483 283.907 141.453 285.488 141.453 287.077H139.07C139.07 285.457 139.101 283.845 139.162 282.24L141.543 282.332ZM378.563 287.077C378.563 285.488 378.533 283.907 378.473 282.332L380.855 282.24C380.915 283.845 380.946 285.457 380.946 287.077H378.563Z" fill="white"/>
<path fill-rule="evenodd" clip-rule="evenodd" d="M260.012 97.1827C258.47 97.1827 256.932 97.2015 255.399 97.2389L255.341 94.8206C256.894 94.7827 258.451 94.7637 260.012 94.7637C261.573 94.7637 263.13 94.7827 264.682 94.8206L264.625 97.2389C263.092 97.2015 261.554 97.1827 260.012 97.1827ZM282.965 98.5887C279.936 98.2149 276.884 97.9142 273.811 97.6882L273.983 95.2755C277.094 95.5043 280.185 95.8089 283.253 96.1874L282.965 98.5887ZM246.212 97.6882C243.14 97.9142 240.088 98.2149 237.059 98.5888L236.771 96.1874C239.839 95.8089 242.929 95.5043 246.04 95.2755L246.212 97.6882ZM301.087 101.745C298.106 101.071 295.098 100.47 292.064 99.9414L292.467 97.5572C295.539 98.0921 298.586 98.7016 301.605 99.3838L301.087 101.745ZM227.959 99.9414C224.926 100.47 221.918 101.071 218.936 101.745L218.419 99.3838C221.438 98.7016 224.485 98.0921 227.557 97.5572L227.959 99.9414ZM318.817 106.692C315.913 105.723 312.977 104.824 310.012 103.997L310.644 101.664C313.647 102.502 316.62 103.413 319.561 104.394L318.817 106.692ZM210.012 103.997C207.047 104.824 204.111 105.723 201.207 106.692L200.463 104.394C203.404 103.413 206.377 102.502 209.38 101.664L210.012 103.997ZM335.982 113.386C333.183 112.131 330.349 110.943 327.48 109.824L328.335 107.566C331.24 108.699 334.111 109.902 336.945 111.173L335.982 113.386ZM192.543 109.824C189.675 110.943 186.841 112.131 184.042 113.386L183.079 111.173C185.913 109.902 188.784 108.699 191.689 107.566L192.543 109.824ZM352.416 121.76C349.75 120.231 347.044 118.766 344.3 117.368L345.369 115.206C348.148 116.622 350.889 118.106 353.588 119.654L352.416 121.76ZM175.724 117.368C172.979 118.766 170.273 120.231 167.608 121.76L166.436 119.654C169.135 118.106 171.875 116.622 174.655 115.206L175.724 117.368ZM159.714 126.55C157.119 128.214 154.567 129.94 152.06 131.727L150.691 129.748C153.229 127.938 155.814 126.19 158.442 124.505L159.714 126.55ZM367.964 131.727C365.457 129.94 362.905 128.214 360.31 126.55L361.582 124.505C364.21 126.19 366.795 127.938 369.333 129.748L367.964 131.727ZM144.665 137.278C142.243 139.19 139.869 141.161 137.545 143.188L135.992 141.353C138.345 139.3 140.749 137.305 143.202 135.368L144.665 137.278ZM382.479 143.188C380.155 141.161 377.781 139.19 375.359 137.278L376.822 135.368C379.274 137.305 381.678 139.3 384.032 141.353L382.479 143.188ZM130.717 149.444C128.492 151.585 126.318 153.781 124.198 156.03L122.477 154.358C124.623 152.081 126.824 149.857 129.078 147.688L130.717 149.444ZM395.826 156.03C393.706 153.781 391.532 151.585 389.307 149.444L390.946 147.688C393.2 149.857 395.401 152.081 397.547 154.358L395.826 156.03ZM118.004 162.931C115.995 165.282 114.043 167.682 112.148 170.131L110.274 168.637C112.193 166.157 114.17 163.726 116.204 161.346L118.004 162.931ZM407.875 170.131C405.981 167.682 404.029 165.282 402.02 162.931L403.82 161.346C405.854 163.726 407.831 166.157 409.75 168.637L407.875 170.131ZM106.647 177.613C104.876 180.15 103.164 182.733 101.514 185.36L99.5047 184.059C101.175 181.399 102.909 178.783 104.703 176.214L106.647 177.613ZM418.51 185.36C416.86 182.733 415.148 180.15 413.377 177.613L415.321 176.214C417.115 178.783 418.848 181.399 420.519 184.059L418.51 185.36ZM427.62 201.574C426.232 198.793 424.779 196.052 423.262 193.353L425.332 192.154C426.868 194.888 428.34 197.664 429.746 200.48L427.62 201.574ZM96.7621 193.353C95.2451 196.052 93.7916 198.793 92.4038 201.574L90.2781 200.48C91.6837 197.664 93.1558 194.888 94.6921 192.154L96.7621 193.353ZM435.11 218.62C433.999 215.712 432.819 212.839 431.573 210.003L433.749 209.017C435.012 211.89 436.207 214.8 437.332 217.745L435.11 218.62ZM88.4508 210.003C87.2044 212.839 86.0248 215.712 84.9138 218.62L82.692 217.745C83.8173 214.8 85.0121 211.89 86.2745 209.017L88.4508 210.003ZM440.9 236.334C440.078 233.327 439.184 230.35 438.222 227.404L440.483 226.642C441.459 229.626 442.363 232.642 443.196 235.688L440.9 236.334ZM81.8021 227.404C80.8394 230.35 79.9461 233.327 79.124 236.335L76.8277 235.688C77.6604 232.642 78.5653 229.626 79.5404 226.642L81.8021 227.404ZM444.931 254.544C444.406 251.466 443.808 248.414 443.138 245.389L445.463 244.858C446.141 247.922 446.747 251.014 447.279 254.131L444.931 254.544ZM76.8859 245.389C76.2162 248.414 75.6179 251.466 75.0928 254.544L72.7448 254.131C73.2766 251.014 73.8826 247.922 74.5608 244.858L76.8859 245.389ZM447.171 273.069C446.947 269.951 446.648 266.853 446.276 263.779L448.641 263.484C449.018 266.598 449.32 269.735 449.548 272.893L447.171 273.069ZM73.748 263.779C73.3763 266.853 73.0772 269.951 72.8525 273.069L70.4759 272.893C70.7034 269.735 71.0063 266.598 71.3827 263.484L73.748 263.779ZM447.674 287.076C447.674 285.511 447.655 283.95 447.618 282.394L450 282.335C450.038 283.911 450.057 285.491 450.057 287.076H447.674ZM72.4057 282.394C72.3685 283.95 72.3498 285.511 72.3498 287.076H69.9668C69.9668 285.491 69.9857 283.911 70.0234 282.335L72.4057 282.394Z" fill="white"/>
<path fill-rule="evenodd" clip-rule="evenodd" d="M260.013 34.2887C122.149 34.2887 10.3928 147.469 10.3928 287.077H8.00977C8.00977 146.127 120.838 31.8696 260.013 31.8696C399.188 31.8696 512.017 146.127 512.017 287.077H509.634C509.634 147.469 397.877 34.2887 260.013 34.2887Z" fill="white"/>
<path fill-rule="evenodd" clip-rule="evenodd" d="M65.315 127.532L42.5669 104.44L44.252 102.729L67 125.821L65.315 127.532Z" fill="white"/>
<path fill-rule="evenodd" clip-rule="evenodd" d="M30.5557 187.147L0.857321 174.593L1.77344 172.359L31.4718 184.914L30.5557 187.147Z" fill="white"/>
<path fill-rule="evenodd" clip-rule="evenodd" d="M491.767 191.984L521.465 179.43L520.549 177.197L490.85 189.751L491.767 191.984Z" fill="white"/>
<path fill-rule="evenodd" clip-rule="evenodd" d="M458.402 131.161L481.15 108.069L479.465 106.359L456.717 129.451L458.402 131.161Z" fill="white"/>
<path fill-rule="evenodd" clip-rule="evenodd" d="M177.325 48.1702L168.999 16.6261L171.301 16L179.627 47.5441L177.325 48.1702Z" fill="white"/>
<path fill-rule="evenodd" clip-rule="evenodd" d="M116.287 79.2384L99.7583 51.2214L101.803 49.9785L118.331 77.9956L116.287 79.2384Z" fill="white"/>
<path fill-rule="evenodd" clip-rule="evenodd" d="M409.539 82.8669L426.068 54.8498L424.023 53.6069L407.495 81.624L409.539 82.8669Z" fill="white"/>
<path fill-rule="evenodd" clip-rule="evenodd" d="M342.827 47.6887L351.153 16.1446L348.852 15.5186L340.525 47.0627L342.827 47.6887Z" fill="white"/>
<path fill-rule="evenodd" clip-rule="evenodd" d="M260.609 33.0777L260.609 0.420899L262.992 0.420898L262.992 33.0777L260.609 33.0777Z" fill="white"/>
<path fill-rule="evenodd" clip-rule="evenodd" d="M157.735 142.676L139.541 128.378L141 126.465L159.743 141.195L168.061 164.718L182.165 173.666L196.349 190.569L191.567 218.483L237.189 290.657L235.184 291.963L189.06 218.996L193.81 191.273L180.59 175.519L166.097 166.324L157.735 142.676Z" fill="white"/>
</svg>
