<svg width="224" height="224" viewBox="0 0 224 224" fill="none" xmlns="http://www.w3.org/2000/svg">
<circle cx="111.59" cy="111.59" r="111.09" stroke="white"/>
<path d="M97.344 54.8876V58.7201H96.8359V54.8876H97.344Z" fill="white"/>
<path d="M101.216 54.8876V58.7201H100.705L98.7759 55.7641V58.7201H98.2679V54.8876H98.7759L100.713 57.8515V54.8876H101.216Z" fill="white"/>
<path d="M104.159 57.7514C104.159 57.6619 104.145 57.583 104.117 57.5145C104.09 57.4443 104.043 57.3812 103.974 57.325C103.908 57.2689 103.815 57.2153 103.695 57.1645C103.578 57.1136 103.429 57.0618 103.248 57.0092C103.058 56.953 102.887 56.8907 102.735 56.8223C102.582 56.7521 102.451 56.6722 102.342 56.5827C102.234 56.4932 102.15 56.3906 102.092 56.2748C102.035 56.159 102.006 56.0265 102.006 55.8773C102.006 55.7282 102.036 55.5904 102.098 55.4641C102.159 55.3377 102.247 55.228 102.361 55.135C102.477 55.0403 102.614 54.9666 102.774 54.9139C102.934 54.8613 103.112 54.835 103.309 54.835C103.596 54.835 103.84 54.8902 104.04 55.0008C104.242 55.1096 104.396 55.2526 104.501 55.4298C104.606 55.6053 104.659 55.7931 104.659 55.9931H104.153C104.153 55.8492 104.123 55.722 104.061 55.6115C104 55.4992 103.907 55.4114 103.782 55.3482C103.658 55.2833 103.5 55.2508 103.309 55.2508C103.128 55.2508 102.979 55.278 102.861 55.3324C102.743 55.3868 102.656 55.4605 102.598 55.5536C102.542 55.6466 102.514 55.7527 102.514 55.872C102.514 55.9528 102.53 56.0265 102.564 56.0932C102.599 56.1581 102.652 56.2186 102.724 56.2748C102.798 56.3309 102.891 56.3827 103.003 56.4301C103.117 56.4775 103.253 56.5231 103.411 56.5669C103.629 56.6284 103.817 56.6968 103.974 56.7723C104.132 56.8477 104.262 56.9328 104.364 57.0276C104.468 57.1206 104.544 57.2268 104.593 57.3461C104.644 57.4636 104.669 57.597 104.669 57.7462C104.669 57.9023 104.638 58.0436 104.575 58.17C104.511 58.2963 104.421 58.4042 104.303 58.4937C104.186 58.5832 104.045 58.6525 103.88 58.7017C103.717 58.749 103.534 58.7727 103.332 58.7727C103.155 58.7727 102.98 58.7482 102.808 58.699C102.638 58.6499 102.483 58.5762 102.342 58.4779C102.204 58.3797 102.092 58.2586 102.008 58.1147C101.926 57.969 101.884 57.8006 101.884 57.6093H102.39C102.39 57.7409 102.415 57.8541 102.466 57.9489C102.517 58.0419 102.586 58.1191 102.674 58.1805C102.764 58.2419 102.865 58.2875 102.977 58.3174C103.091 58.3454 103.209 58.3595 103.332 58.3595C103.509 58.3595 103.659 58.3349 103.782 58.2858C103.905 58.2366 103.998 58.1664 104.061 58.0752C104.126 57.9839 104.159 57.876 104.159 57.7514Z" fill="white"/>
<path d="M106.733 54.8876V58.7201H106.233V54.8876H106.733ZM107.965 54.8876V55.3035H105.004V54.8876H107.965Z" fill="white"/>
<path d="M108.533 54.8876H109.802C110.09 54.8876 110.333 54.9315 110.531 55.0192C110.731 55.107 110.883 55.2368 110.987 55.4088C111.092 55.579 111.145 55.7887 111.145 56.0379C111.145 56.2134 111.109 56.3739 111.037 56.5196C110.966 56.6635 110.865 56.7863 110.731 56.8881C110.6 56.9881 110.442 57.0627 110.258 57.1118L110.115 57.1671H108.923L108.918 56.7538H109.818C110 56.7538 110.152 56.7222 110.273 56.6591C110.394 56.5941 110.486 56.5073 110.547 56.3985C110.608 56.2897 110.639 56.1695 110.639 56.0379C110.639 55.8905 110.61 55.7615 110.552 55.6509C110.494 55.5404 110.403 55.4553 110.279 55.3956C110.156 55.3342 109.997 55.3035 109.802 55.3035H109.041V58.7201H108.533V54.8876ZM110.773 58.7201L109.842 56.9828L110.371 56.9802L111.316 58.6885V58.7201H110.773Z" fill="white"/>
<path d="M115.235 57.7514C115.235 57.6619 115.221 57.583 115.193 57.5145C115.167 57.4443 115.119 57.3812 115.051 57.325C114.984 57.2689 114.891 57.2153 114.772 57.1645C114.654 57.1136 114.505 57.0618 114.324 57.0092C114.135 56.953 113.964 56.8907 113.811 56.8223C113.658 56.7521 113.528 56.6722 113.419 56.5827C113.31 56.4932 113.227 56.3906 113.169 56.2748C113.111 56.159 113.082 56.0265 113.082 55.8773C113.082 55.7282 113.113 55.5904 113.174 55.4641C113.235 55.3377 113.323 55.228 113.437 55.135C113.553 55.0403 113.691 54.9666 113.85 54.9139C114.01 54.8613 114.188 54.835 114.385 54.835C114.673 54.835 114.917 54.8902 115.117 55.0008C115.318 55.1096 115.472 55.2526 115.577 55.4298C115.682 55.6053 115.735 55.7931 115.735 55.9931H115.23C115.23 55.8492 115.199 55.722 115.138 55.6115C115.076 55.4992 114.983 55.4114 114.859 55.3482C114.734 55.2833 114.576 55.2508 114.385 55.2508C114.204 55.2508 114.055 55.278 113.937 55.3324C113.82 55.3868 113.732 55.4605 113.674 55.5536C113.618 55.6466 113.59 55.7527 113.59 55.872C113.59 55.9528 113.607 56.0265 113.64 56.0932C113.675 56.1581 113.729 56.2186 113.8 56.2748C113.874 56.3309 113.967 56.3827 114.079 56.4301C114.194 56.4775 114.33 56.5231 114.487 56.5669C114.705 56.6284 114.893 56.6968 115.051 56.7723C115.209 56.8477 115.339 56.9328 115.44 57.0276C115.544 57.1206 115.62 57.2268 115.669 57.3461C115.72 57.4636 115.746 57.597 115.746 57.7462C115.746 57.9023 115.714 58.0436 115.651 58.17C115.588 58.2963 115.497 58.4042 115.38 58.4937C115.262 58.5832 115.121 58.6525 114.956 58.7017C114.793 58.749 114.61 58.7727 114.408 58.7727C114.231 58.7727 114.057 58.7482 113.885 58.699C113.714 58.6499 113.559 58.5762 113.419 58.4779C113.28 58.3797 113.169 58.2586 113.084 58.1147C113.002 57.969 112.961 57.8006 112.961 57.6093H113.466C113.466 57.7409 113.492 57.8541 113.542 57.9489C113.593 58.0419 113.663 58.1191 113.75 58.1805C113.84 58.2419 113.941 58.2875 114.053 58.3174C114.167 58.3454 114.286 58.3595 114.408 58.3595C114.586 58.3595 114.736 58.3349 114.859 58.2858C114.981 58.2366 115.074 58.1664 115.138 58.0752C115.203 57.9839 115.235 57.876 115.235 57.7514Z" fill="white"/>
<path d="M117.401 57.5619L118.162 54.8876H118.531L118.317 55.9273L117.499 58.7201H117.133L117.401 57.5619ZM116.614 54.8876L117.22 57.5093L117.401 58.7201H117.038L116.109 54.8876H116.614ZM119.515 57.5066L120.107 54.8876H120.615L119.689 58.7201H119.325L119.515 57.5066ZM118.586 54.8876L119.325 57.5619L119.594 58.7201H119.228L118.438 55.9273L118.223 54.8876H118.586Z" fill="white"/>
<path d="M121.723 54.8876V58.7201H121.215V54.8876H121.723Z" fill="white"/>
<path d="M123.984 54.8876V58.7201H123.484V54.8876H123.984ZM125.216 54.8876V55.3035H122.255V54.8876H125.216Z" fill="white"/>
<path d="M128.288 56.5354V56.9486H126.214V56.5354H128.288ZM126.293 54.8876V58.7201H125.785V54.8876H126.293ZM128.73 54.8876V58.7201H128.225V54.8876H128.73Z" fill="white"/>
<path d="M92.8302 133.842L91.5615 137.335H91.043L92.5038 133.503H92.8381L92.8302 133.842ZM93.8936 137.335L92.6223 133.842L92.6144 133.503H92.9487L94.4148 137.335H93.8936ZM93.8278 135.917V136.333H91.6747V135.917H93.8278Z" fill="white"/>
<path d="M97.2523 136.922V137.335H95.3361V136.922H97.2523ZM95.4361 133.503V137.335H94.9281V133.503H95.4361Z" fill="white"/>
<path d="M98.5237 133.503V137.335H98.0236V133.503H98.5237ZM99.7555 133.503V133.919H96.7943V133.503H99.7555Z" fill="white"/>
<path d="M100.869 133.503V137.335H100.361V133.503H100.869Z" fill="white"/>
<path d="M103.13 133.503V137.335H102.63V133.503H103.13ZM104.362 133.503V133.919H101.401V133.503H104.362Z" fill="white"/>
<path d="M107.123 133.503H107.628V136.096C107.628 136.383 107.564 136.623 107.436 136.814C107.308 137.006 107.138 137.149 106.926 137.246C106.715 137.341 106.486 137.388 106.239 137.388C105.979 137.388 105.744 137.341 105.533 137.246C105.324 137.149 105.159 137.006 105.036 136.814C104.915 136.623 104.854 136.383 104.854 136.096V133.503H105.357V136.096C105.357 136.296 105.394 136.461 105.467 136.59C105.541 136.72 105.644 136.817 105.775 136.88C105.909 136.943 106.063 136.975 106.239 136.975C106.416 136.975 106.57 136.943 106.702 136.88C106.835 136.817 106.939 136.72 107.013 136.59C107.086 136.461 107.123 136.296 107.123 136.096V133.503Z" fill="white"/>
<path d="M109.463 137.335H108.663L108.668 136.922H109.463C109.737 136.922 109.965 136.865 110.147 136.751C110.33 136.635 110.467 136.474 110.558 136.267C110.651 136.058 110.698 135.814 110.698 135.535V135.301C110.698 135.081 110.671 134.887 110.619 134.716C110.566 134.544 110.489 134.4 110.387 134.282C110.285 134.163 110.161 134.072 110.013 134.011C109.868 133.95 109.7 133.919 109.51 133.919H108.647V133.503H109.51C109.761 133.503 109.99 133.545 110.197 133.629C110.405 133.712 110.583 133.832 110.732 133.99C110.883 134.146 110.999 134.336 111.079 134.558C111.16 134.78 111.2 135.029 111.2 135.306V135.535C111.2 135.812 111.16 136.062 111.079 136.285C110.999 136.506 110.882 136.695 110.729 136.851C110.578 137.007 110.396 137.127 110.182 137.212C109.969 137.294 109.73 137.335 109.463 137.335ZM108.934 133.503V137.335H108.426V133.503H108.934Z" fill="white"/>
<path d="M114.398 136.922V137.335H112.369V136.922H114.398ZM112.472 133.503V137.335H111.964V133.503H112.472ZM114.13 135.151V135.564H112.369V135.151H114.13ZM114.372 133.503V133.919H112.369V133.503H114.372Z" fill="white"/>
<path d="M117.783 133.842L116.515 137.335H115.996L117.457 133.503H117.791L117.783 133.842ZM118.847 137.335L117.576 133.842L117.568 133.503H117.902L119.368 137.335H118.847ZM118.781 135.917V136.333H116.628V135.917H118.781Z" fill="white"/>
<path d="M122.206 136.922V137.335H120.289V136.922H122.206ZM120.389 133.503V137.335H119.881V133.503H120.389Z" fill="white"/>
<path d="M125.222 136.922V137.335H123.193V136.922H125.222ZM123.295 133.503V137.335H122.787V133.503H123.295ZM124.954 135.151V135.564H123.193V135.151H124.954ZM125.196 133.503V133.919H123.193V133.503H125.196Z" fill="white"/>
<path d="M125.851 133.503H127.12C127.408 133.503 127.651 133.547 127.849 133.635C128.049 133.722 128.201 133.852 128.304 134.024C128.41 134.194 128.462 134.404 128.462 134.653C128.462 134.829 128.426 134.989 128.354 135.135C128.284 135.279 128.182 135.402 128.049 135.503C127.917 135.603 127.759 135.678 127.575 135.727L127.433 135.782H126.241L126.235 135.369H127.136C127.318 135.369 127.47 135.338 127.591 135.274C127.712 135.209 127.803 135.123 127.865 135.014C127.926 134.905 127.957 134.785 127.957 134.653C127.957 134.506 127.928 134.377 127.87 134.266C127.812 134.156 127.721 134.071 127.596 134.011C127.473 133.95 127.315 133.919 127.12 133.919H126.359V137.335H125.851V133.503ZM128.091 137.335L127.159 135.598L127.688 135.596L128.633 137.304V137.335H128.091Z" fill="white"/>
<path d="M130.379 133.503V137.335H129.878V133.503H130.379ZM131.61 133.503V133.919H128.649V133.503H131.61Z" fill="white"/>
<path d="M91.7521 143.043L92.8813 139.792H93.4315L92.0127 143.624H91.6205L91.7521 143.043ZM90.6966 139.792L91.8153 143.043L91.9548 143.624H91.5626L90.1465 139.792H90.6966Z" fill="white"/>
<path d="M96.3822 143.211V143.624H94.3527V143.211H96.3822ZM94.4554 139.792V143.624H93.9474V139.792H94.4554ZM96.1137 141.44V141.853H94.3527V141.44H96.1137ZM96.3558 139.792V140.208H94.3527V139.792H96.3558Z" fill="white"/>
<path d="M97.0113 139.792H98.28C98.5678 139.792 98.8108 139.836 99.0091 139.924C99.2091 140.011 99.3609 140.141 99.4645 140.313C99.5698 140.483 99.6224 140.693 99.6224 140.942C99.6224 141.118 99.5864 141.278 99.5145 141.424C99.4443 141.568 99.3425 141.691 99.2091 141.792C99.0775 141.892 98.9196 141.967 98.7353 142.016L98.5932 142.071H97.4008L97.3956 141.658H98.2958C98.4783 141.658 98.6301 141.627 98.7511 141.563C98.8722 141.498 98.9635 141.412 99.0249 141.303C99.0863 141.194 99.117 141.074 99.117 140.942C99.117 140.795 99.0881 140.666 99.0302 140.555C98.9722 140.445 98.881 140.36 98.7564 140.3C98.6336 140.238 98.4748 140.208 98.28 140.208H97.5193V143.624H97.0113V139.792ZM99.2513 143.624L98.3195 141.887L98.8485 141.884L99.7935 143.593V143.624H99.2513Z" fill="white"/>
<path d="M101.539 139.792V143.624H101.039V139.792H101.539ZM102.771 139.792V140.208H99.8093V139.792H102.771Z" fill="white"/>
<path d="M103.884 139.792V143.624H103.376V139.792H103.884Z" fill="white"/>
<path d="M107.122 142.406H107.627C107.601 142.648 107.531 142.865 107.419 143.056C107.307 143.247 107.148 143.399 106.943 143.511C106.737 143.622 106.481 143.677 106.174 143.677C105.949 143.677 105.745 143.635 105.561 143.551C105.378 143.466 105.221 143.347 105.089 143.193C104.958 143.037 104.856 142.85 104.784 142.632C104.714 142.413 104.679 142.169 104.679 141.9V141.519C104.679 141.25 104.714 141.007 104.784 140.79C104.856 140.57 104.959 140.382 105.092 140.226C105.227 140.07 105.39 139.95 105.579 139.866C105.769 139.781 105.982 139.739 106.219 139.739C106.508 139.739 106.753 139.794 106.953 139.902C107.153 140.011 107.308 140.162 107.419 140.355C107.531 140.546 107.601 140.768 107.627 141.021H107.122C107.097 140.842 107.051 140.689 106.985 140.561C106.918 140.431 106.823 140.331 106.7 140.26C106.578 140.19 106.417 140.155 106.219 140.155C106.048 140.155 105.898 140.188 105.769 140.253C105.64 140.317 105.533 140.41 105.445 140.529C105.359 140.648 105.294 140.791 105.25 140.958C105.206 141.125 105.184 141.31 105.184 141.513V141.9C105.184 142.088 105.204 142.264 105.242 142.429C105.282 142.594 105.343 142.739 105.424 142.864C105.504 142.988 105.607 143.087 105.732 143.158C105.856 143.229 106.004 143.264 106.174 143.264C106.39 143.264 106.562 143.23 106.69 143.161C106.818 143.093 106.914 142.994 106.979 142.866C107.046 142.738 107.093 142.585 107.122 142.406Z" fill="white"/>
<path d="M109.738 140.131L108.469 143.624H107.951L109.412 139.792H109.746L109.738 140.131ZM110.801 143.624L109.53 140.131L109.522 139.792H109.856L111.323 143.624H110.801ZM110.736 142.206V142.622H108.582V142.206H110.736Z" fill="white"/>
<path d="M114.16 143.211V143.624H112.244V143.211H114.16ZM112.344 139.792V143.624H111.836V139.792H112.344Z" fill="white"/>
<path d="M118.121 142.656C118.121 142.566 118.107 142.487 118.079 142.419C118.053 142.349 118.006 142.285 117.937 142.229C117.871 142.173 117.778 142.12 117.658 142.069C117.541 142.018 117.391 141.966 117.211 141.913C117.021 141.857 116.85 141.795 116.697 141.727C116.545 141.656 116.414 141.577 116.305 141.487C116.196 141.398 116.113 141.295 116.055 141.179C115.997 141.063 115.968 140.931 115.968 140.782C115.968 140.632 115.999 140.495 116.06 140.368C116.122 140.242 116.21 140.132 116.324 140.039C116.44 139.945 116.577 139.871 116.737 139.818C116.897 139.766 117.075 139.739 117.271 139.739C117.559 139.739 117.803 139.795 118.003 139.905C118.205 140.014 118.358 140.157 118.464 140.334C118.569 140.51 118.622 140.697 118.622 140.897H118.116C118.116 140.754 118.086 140.626 118.024 140.516C117.963 140.403 117.87 140.316 117.745 140.253C117.62 140.188 117.463 140.155 117.271 140.155C117.091 140.155 116.941 140.182 116.824 140.237C116.706 140.291 116.618 140.365 116.561 140.458C116.504 140.551 116.476 140.657 116.476 140.776C116.476 140.857 116.493 140.931 116.526 140.997C116.561 141.062 116.615 141.123 116.687 141.179C116.761 141.235 116.854 141.287 116.966 141.334C117.08 141.382 117.216 141.427 117.374 141.471C117.592 141.533 117.779 141.601 117.937 141.677C118.095 141.752 118.225 141.837 118.327 141.932C118.43 142.025 118.507 142.131 118.556 142.25C118.607 142.368 118.632 142.501 118.632 142.65C118.632 142.807 118.601 142.948 118.537 143.074C118.474 143.201 118.384 143.309 118.266 143.398C118.149 143.488 118.007 143.557 117.842 143.606C117.679 143.653 117.497 143.677 117.295 143.677C117.118 143.677 116.943 143.652 116.771 143.603C116.601 143.554 116.446 143.48 116.305 143.382C116.167 143.284 116.055 143.163 115.971 143.019C115.889 142.873 115.847 142.705 115.847 142.514H116.353C116.353 142.645 116.378 142.758 116.429 142.853C116.48 142.946 116.549 143.023 116.637 143.085C116.726 143.146 116.827 143.192 116.94 143.222C117.054 143.25 117.172 143.264 117.295 143.264C117.472 143.264 117.622 143.239 117.745 143.19C117.868 143.141 117.961 143.071 118.024 142.979C118.089 142.888 118.121 142.78 118.121 142.656Z" fill="white"/>
<path d="M120.693 142.121H119.669V141.708H120.693C120.891 141.708 121.052 141.677 121.175 141.613C121.298 141.55 121.387 141.462 121.443 141.35C121.501 141.238 121.53 141.11 121.53 140.966C121.53 140.834 121.501 140.711 121.443 140.595C121.387 140.479 121.298 140.386 121.175 140.316C121.052 140.244 120.891 140.208 120.693 140.208H119.788V143.624H119.28V139.792H120.693C120.983 139.792 121.227 139.842 121.428 139.942C121.628 140.042 121.779 140.181 121.883 140.358C121.986 140.533 122.038 140.734 122.038 140.961C122.038 141.206 121.986 141.416 121.883 141.59C121.779 141.763 121.628 141.896 121.428 141.987C121.227 142.077 120.983 142.121 120.693 142.121Z" fill="white"/>
<path d="M125.115 143.211V143.624H123.086V143.211H125.115ZM123.188 139.792V143.624H122.68V139.792H123.188ZM124.847 141.44V141.853H123.086V141.44H124.847ZM125.089 139.792V140.208H123.086V139.792H125.089Z" fill="white"/>
<path d="M128.179 143.211V143.624H126.15V143.211H128.179ZM126.252 139.792V143.624H125.744V139.792H126.252ZM127.911 141.44V141.853H126.15V141.44H127.911ZM128.153 139.792V140.208H126.15V139.792H128.153Z" fill="white"/>
<path d="M129.845 143.624H129.045L129.05 143.211H129.845C130.119 143.211 130.347 143.154 130.53 143.04C130.712 142.924 130.849 142.763 130.94 142.556C131.033 142.347 131.08 142.103 131.08 141.824V141.59C131.08 141.37 131.053 141.176 131.001 141.005C130.948 140.833 130.871 140.689 130.769 140.571C130.667 140.452 130.543 140.361 130.395 140.3C130.25 140.238 130.082 140.208 129.893 140.208H129.029V139.792H129.893C130.144 139.792 130.373 139.834 130.58 139.918C130.787 140.001 130.965 140.121 131.114 140.279C131.265 140.435 131.381 140.625 131.461 140.847C131.542 141.069 131.583 141.318 131.583 141.595V141.824C131.583 142.101 131.542 142.351 131.461 142.574C131.381 142.795 131.264 142.984 131.111 143.14C130.96 143.296 130.778 143.416 130.564 143.501C130.352 143.583 130.112 143.624 129.845 143.624ZM129.316 139.792V143.624H128.808V139.792H129.316Z" fill="white"/>
<path d="M143.845 118.779V119.379H139.691V118.949L142.266 114.965H142.862L142.222 116.118L140.521 118.779H143.845ZM143.044 114.965V120.713H142.313V114.965H143.044Z" fill="white"/>
<path d="M148.224 114.965V115.375L145.843 120.713H145.073L147.45 115.565H144.339V114.965H148.224Z" fill="white"/>
<path d="M151.457 114.933V120.713H150.727V115.845L149.254 116.382V115.723L151.343 114.933H151.457Z" fill="white"/>
<path d="M153.696 120.326C153.696 120.203 153.734 120.099 153.811 120.015C153.889 119.928 154.003 119.884 154.15 119.884C154.297 119.884 154.409 119.928 154.486 120.015C154.565 120.099 154.604 120.203 154.604 120.326C154.604 120.448 154.565 120.55 154.486 120.634C154.409 120.719 154.297 120.761 154.15 120.761C154.003 120.761 153.889 120.719 153.811 120.634C153.734 120.55 153.696 120.448 153.696 120.326Z" fill="white"/>
<path d="M159.504 120.113V120.713H155.741V120.188L157.625 118.092C157.856 117.834 158.035 117.615 158.162 117.436C158.291 117.255 158.38 117.093 158.43 116.951C158.483 116.806 158.509 116.659 158.509 116.508C158.509 116.319 158.47 116.148 158.391 115.995C158.314 115.84 158.201 115.716 158.051 115.624C157.901 115.532 157.719 115.486 157.506 115.486C157.251 115.486 157.038 115.536 156.866 115.636C156.698 115.733 156.572 115.87 156.487 116.047C156.403 116.223 156.361 116.426 156.361 116.655H155.631C155.631 116.331 155.702 116.035 155.844 115.766C155.986 115.498 156.197 115.285 156.476 115.127C156.755 114.966 157.098 114.886 157.506 114.886C157.869 114.886 158.18 114.95 158.438 115.079C158.696 115.206 158.893 115.385 159.03 115.616C159.17 115.845 159.239 116.114 159.239 116.422C159.239 116.59 159.21 116.761 159.153 116.935C159.097 117.106 159.02 117.277 158.92 117.448C158.822 117.619 158.708 117.788 158.576 117.954C158.447 118.119 158.309 118.283 158.162 118.443L156.622 120.113H159.504Z" fill="white"/>
<path d="M164.171 118.779V119.379H160.017V118.949L162.592 114.965H163.188L162.548 116.118L160.846 118.779H164.171ZM163.369 114.965V120.713H162.639V114.965H163.369Z" fill="white"/>
<path fill-rule="evenodd" clip-rule="evenodd" d="M112.977 47.4896L112.977 32.2158L114.773 32.2158L114.773 47.4896L112.977 47.4896Z" fill="white"/>
<path fill-rule="evenodd" clip-rule="evenodd" d="M177.216 110.831L191.592 110.831L191.592 112.628L177.216 112.628L177.216 110.831Z" fill="white"/>
<path fill-rule="evenodd" clip-rule="evenodd" d="M158.417 65.3062L168.724 54.9995L169.359 55.6348L159.053 65.9415L158.417 65.3062Z" fill="white"/>
<path fill-rule="evenodd" clip-rule="evenodd" d="M158.34 156.262L168.647 166.569L168.012 167.204L157.705 156.897L158.34 156.262Z" fill="white"/>
<path fill-rule="evenodd" clip-rule="evenodd" d="M170.822 137.859L183.998 144.093L183.613 144.905L170.438 138.671L170.822 137.859Z" fill="white"/>
<path fill-rule="evenodd" clip-rule="evenodd" d="M53.8469 135.704L40.4062 141.343L40.0586 140.515L53.4993 134.875L53.8469 135.704Z" fill="white"/>
<path fill-rule="evenodd" clip-rule="evenodd" d="M88.0999 170.068L82.5836 183.56L81.752 183.22L87.2683 169.728L88.0999 170.068Z" fill="white"/>
<path fill-rule="evenodd" clip-rule="evenodd" d="M137.779 169.569L143.418 183.009L142.59 183.357L136.95 169.916L137.779 169.569Z" fill="white"/>
<path fill-rule="evenodd" clip-rule="evenodd" d="M112.977 189.895L112.977 174.621L114.773 174.621L114.773 189.895L112.977 189.895Z" fill="white"/>
<path fill-rule="evenodd" clip-rule="evenodd" d="M33.9157 110.831L49.1895 110.831L49.1895 112.628L33.9157 112.628L33.9157 110.831Z" fill="white"/>
<path fill-rule="evenodd" clip-rule="evenodd" d="M57.5404 166.181L67.8471 155.874L68.4824 156.509L58.1757 166.816L57.5404 166.181Z" fill="white"/>
<path fill-rule="evenodd" clip-rule="evenodd" d="M57.4653 55.388L67.772 65.6948L67.1367 66.3301L56.83 56.0234L57.4653 55.388Z" fill="white"/>
<path fill-rule="evenodd" clip-rule="evenodd" d="M41.8708 76.846L55.0464 83.08L54.6621 83.8921L41.4866 77.6581L41.8708 76.846Z" fill="white"/>
<path fill-rule="evenodd" clip-rule="evenodd" d="M185.394 80.5078L171.953 86.1473L171.605 85.3188L185.046 79.6793L185.394 80.5078Z" fill="white"/>
<path fill-rule="evenodd" clip-rule="evenodd" d="M142.086 38.0206L136.57 51.5124L135.738 51.1724L141.255 37.6806L142.086 38.0206Z" fill="white"/>
<path fill-rule="evenodd" clip-rule="evenodd" d="M82.5816 38.0207L88.2211 51.4615L87.3926 51.8091L81.7531 38.3684L82.5816 38.0207Z" fill="white"/>
<path d="M114.959 26H113.382V15.417L111.349 17.564L110.399 16.595L113.572 13.327H114.959V26Z" fill="white"/>
<path d="M115.111 211.209C113.654 211.209 112.483 210.702 111.596 209.689L112.394 208.511C113.129 209.372 114.034 209.803 115.111 209.803C115.922 209.803 116.606 209.55 117.163 209.043C117.72 208.536 118.113 207.922 118.341 207.2C118.569 206.478 118.683 205.693 118.683 204.844C118.683 204.616 118.677 204.445 118.664 204.331C118.347 204.838 117.86 205.294 117.201 205.699C116.542 206.104 115.839 206.307 115.092 206.307C113.889 206.307 112.894 205.959 112.109 205.262C111.324 204.553 110.931 203.552 110.931 202.26C110.931 201.12 111.336 200.145 112.147 199.334C112.958 198.523 114.028 198.118 115.358 198.118C116.219 198.118 116.973 198.295 117.619 198.65C118.265 199.005 118.772 199.492 119.139 200.113C119.519 200.734 119.798 201.424 119.975 202.184C120.165 202.944 120.26 203.774 120.26 204.673C120.26 205.864 120.083 206.94 119.728 207.903C119.373 208.853 118.797 209.645 117.999 210.278C117.214 210.899 116.251 211.209 115.111 211.209ZM115.453 204.939C116.074 204.939 116.669 204.768 117.239 204.426C117.822 204.084 118.278 203.628 118.607 203.058C118.531 202.121 118.233 201.297 117.714 200.588C117.195 199.879 116.435 199.524 115.434 199.524C114.535 199.524 113.825 199.803 113.306 200.36C112.787 200.917 112.527 201.532 112.527 202.203C112.527 203.09 112.799 203.767 113.344 204.236C113.889 204.705 114.592 204.939 115.453 204.939Z" fill="white"/>
<path d="M205.719 116.228C203.768 116.228 202.28 115.55 201.254 114.195L202.223 113.15C203.097 114.265 204.262 114.822 205.719 114.822C206.58 114.822 207.283 114.562 207.828 114.043C208.373 113.524 208.645 112.878 208.645 112.105C208.645 111.282 208.373 110.623 207.828 110.129C207.296 109.622 206.599 109.369 205.738 109.369C204.598 109.369 203.623 109.768 202.812 110.566L201.653 110.167V103.327H209.405V104.733H203.23V109.141C203.99 108.381 204.978 108.001 206.194 108.001C207.309 108.001 208.259 108.368 209.044 109.103C209.829 109.825 210.222 110.807 210.222 112.048C210.222 113.315 209.798 114.328 208.949 115.088C208.1 115.848 207.024 116.228 205.719 116.228Z" fill="white"/>
<path d="M200.208 85H198.631V81.789H192.608V80.478L198.042 72.327H200.208V80.402H201.994V81.789H200.208V85ZM198.631 80.402V73.79L194.185 80.402H198.631Z" fill="white"/>
<path d="M197.852 150.228C197.003 150.228 196.256 150.051 195.61 149.696C194.964 149.341 194.451 148.86 194.071 148.252C193.704 147.631 193.425 146.941 193.235 146.181C193.058 145.408 192.969 144.579 192.969 143.692C192.969 142.501 193.146 141.425 193.501 140.462C193.856 139.499 194.426 138.708 195.211 138.087C196.009 137.454 196.978 137.137 198.118 137.137C199.575 137.137 200.746 137.644 201.633 138.657L200.835 139.835C200.1 138.974 199.195 138.543 198.118 138.543C197.333 138.543 196.661 138.79 196.104 139.284C195.559 139.778 195.16 140.392 194.907 141.127C194.666 141.849 194.546 142.647 194.546 143.521C194.546 143.736 194.552 143.901 194.565 144.015C194.882 143.508 195.369 143.052 196.028 142.647C196.699 142.242 197.409 142.039 198.156 142.039C199.359 142.039 200.347 142.394 201.12 143.103C201.905 143.8 202.298 144.794 202.298 146.086C202.298 147.239 201.893 148.22 201.082 149.031C200.271 149.829 199.195 150.228 197.852 150.228ZM197.795 148.822C198.707 148.822 199.416 148.55 199.923 148.005C200.442 147.448 200.702 146.827 200.702 146.143C200.702 145.256 200.43 144.579 199.885 144.11C199.34 143.641 198.637 143.407 197.776 143.407C197.155 143.407 196.56 143.584 195.99 143.939C195.42 144.281 194.958 144.737 194.603 145.307C194.692 146.244 194.996 147.068 195.515 147.777C196.034 148.474 196.794 148.822 197.795 148.822Z" fill="white"/>
<path d="M23.959 85H22.382V74.417L20.349 76.564L19.399 75.595L22.572 72.327H23.959V85ZM33.6465 85H32.0695V81.789H26.0465V80.478L31.4805 72.327H33.6465V80.402H35.4325V81.789H33.6465V85ZM32.0695 80.402V73.79L27.6235 80.402H32.0695Z" fill="white"/>
<path d="M23.959 150H22.382V139.417L20.349 141.564L19.399 140.595L22.572 137.327H23.959V150ZM35.1665 150H26.4645V148.746C27.7818 147.707 28.8015 146.884 29.5235 146.276C30.2581 145.655 30.9611 145.003 31.6325 144.319C32.3165 143.622 32.7978 143.008 33.0765 142.476C33.3551 141.931 33.4945 141.393 33.4945 140.861C33.4945 140.101 33.2348 139.525 32.7155 139.132C32.1961 138.739 31.5755 138.543 30.8535 138.543C29.3968 138.543 28.2505 139.075 27.4145 140.139L26.4455 139.132C26.9268 138.499 27.5538 138.011 28.3265 137.669C29.1118 137.314 29.9541 137.137 30.8535 137.137C32.0061 137.137 33.0005 137.46 33.8365 138.106C34.6851 138.752 35.1095 139.67 35.1095 140.861C35.1095 142.039 34.6028 143.217 33.5895 144.395C32.5761 145.56 31.0308 146.96 28.9535 148.594H35.1665V150Z" fill="white"/>
<path d="M17.959 116H16.382V105.417L14.349 107.564L13.399 106.595L16.572 103.327H17.959V116ZM24.4925 116.228C23.4791 116.228 22.5798 116.032 21.7945 115.639C21.0091 115.246 20.4075 114.746 19.9895 114.138L20.9205 113.15C21.3005 113.657 21.8008 114.062 22.4215 114.366C23.0421 114.67 23.7198 114.822 24.4545 114.822C25.3791 114.822 26.1011 114.613 26.6205 114.195C27.1525 113.764 27.4185 113.182 27.4185 112.447C27.4185 111.687 27.1335 111.123 26.5635 110.756C26.0061 110.389 25.2398 110.205 24.2645 110.205C23.5171 110.205 23.0801 110.211 22.9535 110.224V108.78C23.0928 108.793 23.5298 108.799 24.2645 108.799C25.1258 108.799 25.8288 108.628 26.3735 108.286C26.9308 107.931 27.2095 107.406 27.2095 106.709C27.2095 106.038 26.9371 105.512 26.3925 105.132C25.8605 104.739 25.1891 104.543 24.3785 104.543C23.0991 104.543 21.9845 105.056 21.0345 106.082L20.1605 105.094C21.2371 103.789 22.6811 103.137 24.4925 103.137C25.7465 103.137 26.7725 103.441 27.5705 104.049C28.3811 104.644 28.7865 105.468 28.7865 106.519C28.7865 107.355 28.5078 108.026 27.9505 108.533C27.3931 109.027 26.7598 109.337 26.0505 109.464C26.7471 109.527 27.4058 109.831 28.0265 110.376C28.6598 110.921 28.9765 111.655 28.9765 112.58C28.9765 113.657 28.5711 114.537 27.7605 115.221C26.9498 115.892 25.8605 116.228 24.4925 116.228Z" fill="white"/>
<path d="M152.728 32H144.026V30.746C145.343 29.7073 146.363 28.884 147.085 28.276C147.82 27.6553 148.523 27.003 149.194 26.319C149.878 25.6223 150.359 25.008 150.638 24.476C150.917 23.9313 151.056 23.393 151.056 22.861C151.056 22.101 150.796 21.5247 150.277 21.132C149.758 20.7393 149.137 20.543 148.415 20.543C146.958 20.543 145.812 21.075 144.976 22.139L144.007 21.132C144.488 20.4987 145.115 20.011 145.888 19.669C146.673 19.3143 147.516 19.137 148.415 19.137C149.568 19.137 150.562 19.46 151.398 20.106C152.247 20.752 152.671 21.6703 152.671 22.861C152.671 24.039 152.164 25.217 151.151 26.395C150.138 27.5603 148.592 28.96 146.515 30.594H152.728V32Z" fill="white"/>
<path d="M151.759 200.297C150.898 200.918 149.821 201.228 148.529 201.228C147.237 201.228 146.154 200.918 145.28 200.297C144.419 199.676 143.988 198.84 143.988 197.789C143.988 196.991 144.273 196.301 144.843 195.718C145.426 195.135 146.148 194.717 147.009 194.464C146.198 194.236 145.527 193.869 144.995 193.362C144.463 192.843 144.197 192.197 144.197 191.424C144.197 190.36 144.628 189.549 145.489 188.992C146.35 188.422 147.364 188.137 148.529 188.137C149.694 188.137 150.708 188.422 151.569 188.992C152.443 189.549 152.88 190.36 152.88 191.424C152.88 192.197 152.614 192.843 152.082 193.362C151.55 193.869 150.872 194.236 150.049 194.464C150.91 194.717 151.626 195.135 152.196 195.718C152.779 196.301 153.07 196.991 153.07 197.789C153.07 198.828 152.633 199.664 151.759 200.297ZM148.529 193.818C148.782 193.78 149.036 193.717 149.289 193.628C149.555 193.539 149.853 193.419 150.182 193.267C150.511 193.102 150.777 192.881 150.98 192.602C151.183 192.311 151.284 191.988 151.284 191.633C151.284 191 151.018 190.493 150.486 190.113C149.967 189.733 149.314 189.543 148.529 189.543C147.731 189.543 147.072 189.733 146.553 190.113C146.034 190.493 145.774 191 145.774 191.633C145.774 191.988 145.875 192.311 146.078 192.602C146.281 192.881 146.547 193.102 146.876 193.267C147.205 193.419 147.497 193.539 147.75 193.628C148.016 193.704 148.276 193.767 148.529 193.818ZM148.529 199.822C149.34 199.822 150.03 199.619 150.6 199.214C151.183 198.809 151.474 198.277 151.474 197.618C151.474 197.111 151.271 196.668 150.866 196.288C150.473 195.895 150.068 195.623 149.65 195.471C149.245 195.306 148.871 195.205 148.529 195.167C148.187 195.205 147.807 195.306 147.389 195.471C146.984 195.623 146.578 195.895 146.173 196.288C145.768 196.668 145.565 197.111 145.565 197.618C145.565 198.277 145.85 198.809 146.42 199.214C147.003 199.619 147.706 199.822 148.529 199.822Z" fill="white"/>
<path d="M76.959 32H75.382V21.417L73.349 23.564L72.399 22.595L75.572 19.327H76.959V32ZM84.2905 32.228C83.4418 32.228 82.6945 32.0507 82.0485 31.696C81.4025 31.3413 80.8895 30.86 80.5095 30.252C80.1421 29.6313 79.8635 28.941 79.6735 28.181C79.4961 27.4083 79.4075 26.5787 79.4075 25.692C79.4075 24.5013 79.5848 23.4247 79.9395 22.462C80.2941 21.4993 80.8641 20.7077 81.6495 20.087C82.4475 19.4537 83.4165 19.137 84.5565 19.137C86.0131 19.137 87.1848 19.6437 88.0715 20.657L87.2735 21.835C86.5388 20.9737 85.6331 20.543 84.5565 20.543C83.7711 20.543 83.0998 20.79 82.5425 21.284C81.9978 21.778 81.5988 22.3923 81.3455 23.127C81.1048 23.849 80.9845 24.647 80.9845 25.521C80.9845 25.7363 80.9908 25.901 81.0035 26.015C81.3201 25.5083 81.8078 25.0523 82.4665 24.647C83.1378 24.2417 83.8471 24.039 84.5945 24.039C85.7978 24.039 86.7858 24.3937 87.5585 25.103C88.3438 25.7997 88.7365 26.794 88.7365 28.086C88.7365 29.2387 88.3311 30.2203 87.5205 31.031C86.7098 31.829 85.6331 32.228 84.2905 32.228ZM84.2335 30.822C85.1455 30.822 85.8548 30.5497 86.3615 30.005C86.8808 29.4477 87.1405 28.827 87.1405 28.143C87.1405 27.2563 86.8681 26.5787 86.3235 26.11C85.7788 25.6413 85.0758 25.407 84.2145 25.407C83.5938 25.407 82.9985 25.5843 82.4285 25.939C81.8585 26.281 81.3961 26.737 81.0415 27.307C81.1301 28.2443 81.4341 29.0677 81.9535 29.777C82.4728 30.4737 83.2328 30.822 84.2335 30.822Z" fill="white"/>
<path d="M39.959 57H38.382V46.417L36.349 48.564L35.399 47.595L38.572 44.327H39.959V57ZM47.1575 57.228C45.2068 57.228 43.7185 56.5503 42.6925 55.195L43.6615 54.15C44.5355 55.2647 45.7008 55.822 47.1575 55.822C48.0188 55.822 48.7218 55.5623 49.2665 55.043C49.8111 54.5237 50.0835 53.8777 50.0835 53.105C50.0835 52.2817 49.8111 51.623 49.2665 51.129C48.7345 50.6223 48.0378 50.369 47.1765 50.369C46.0365 50.369 45.0611 50.768 44.2505 51.566L43.0915 51.167V44.327H50.8435V45.733H44.6685V50.141C45.4285 49.381 46.4165 49.001 47.6325 49.001C48.7471 49.001 49.6971 49.3683 50.4825 50.103C51.2678 50.825 51.6605 51.8067 51.6605 53.048C51.6605 54.3147 51.2361 55.328 50.3875 56.088C49.5388 56.848 48.4621 57.228 47.1575 57.228Z" fill="white"/>
<path d="M39.959 180H38.382V169.417L36.349 171.564L35.399 170.595L38.572 167.327H39.959V180ZM46.3975 180H44.8205V169.417L42.7875 171.564L41.8375 170.595L45.0105 167.327H46.3975V180Z" fill="white"/>
<path d="M177.054 57.228C176.041 57.228 175.141 57.0317 174.356 56.639C173.571 56.2463 172.969 55.746 172.551 55.138L173.482 54.15C173.862 54.6567 174.362 55.062 174.983 55.366C175.604 55.67 176.281 55.822 177.016 55.822C177.941 55.822 178.663 55.613 179.182 55.195C179.714 54.7643 179.98 54.1817 179.98 53.447C179.98 52.687 179.695 52.1233 179.125 51.756C178.568 51.3887 177.801 51.205 176.826 51.205C176.079 51.205 175.642 51.2113 175.515 51.224V49.78C175.654 49.7927 176.091 49.799 176.826 49.799C177.687 49.799 178.39 49.628 178.935 49.286C179.492 48.9313 179.771 48.4057 179.771 47.709C179.771 47.0377 179.499 46.512 178.954 46.132C178.422 45.7393 177.751 45.543 176.94 45.543C175.661 45.543 174.546 46.056 173.596 47.082L172.722 46.094C173.799 44.7893 175.243 44.137 177.054 44.137C178.308 44.137 179.334 44.441 180.132 45.049C180.943 45.6443 181.348 46.4677 181.348 47.519C181.348 48.355 181.069 49.0263 180.512 49.533C179.955 50.027 179.321 50.3373 178.612 50.464C179.309 50.5273 179.967 50.8313 180.588 51.376C181.221 51.9207 181.538 52.6553 181.538 53.58C181.538 54.6567 181.133 55.537 180.322 56.221C179.511 56.8923 178.422 57.228 177.054 57.228Z" fill="white"/>
<path d="M176.047 180H174.299L179.41 168.733H172.589V167.327H181.234V168.41L176.047 180Z" fill="white"/>
<path d="M76.959 201H75.382V190.417L73.349 192.564L72.399 191.595L75.572 188.327H76.959V201ZM84.2525 201.228C83.4165 201.228 82.6755 201.038 82.0295 200.658C81.3961 200.265 80.8895 199.746 80.5095 199.1C80.1421 198.454 79.8635 197.757 79.6735 197.01C79.4961 196.263 79.4075 195.484 79.4075 194.673C79.4075 193.862 79.4961 193.083 79.6735 192.336C79.8635 191.589 80.1421 190.898 80.5095 190.265C80.8895 189.619 81.3961 189.106 82.0295 188.726C82.6755 188.333 83.4165 188.137 84.2525 188.137C85.0758 188.137 85.8105 188.333 86.4565 188.726C87.1025 189.106 87.6091 189.619 87.9765 190.265C88.3565 190.898 88.6351 191.589 88.8125 192.336C89.0025 193.083 89.0975 193.862 89.0975 194.673C89.0975 195.484 89.0025 196.263 88.8125 197.01C88.6351 197.757 88.3565 198.454 87.9765 199.1C87.6091 199.746 87.1025 200.265 86.4565 200.658C85.8105 201.038 85.0758 201.228 84.2525 201.228ZM82.3525 199.043C82.8591 199.562 83.4925 199.822 84.2525 199.822C85.0125 199.822 85.6458 199.562 86.1525 199.043C86.6591 198.511 87.0075 197.878 87.1975 197.143C87.3875 196.408 87.4825 195.585 87.4825 194.673C87.4825 193.761 87.3875 192.938 87.1975 192.203C87.0075 191.468 86.6591 190.841 86.1525 190.322C85.6458 189.803 85.0125 189.543 84.2525 189.543C83.4925 189.543 82.8591 189.803 82.3525 190.322C81.8458 190.841 81.4975 191.468 81.3075 192.203C81.1175 192.938 81.0225 193.761 81.0225 194.673C81.0225 195.585 81.1175 196.408 81.3075 197.143C81.4975 197.878 81.8458 198.511 82.3525 199.043Z" fill="white"/>
</svg>
