<svg width="88" height="87" viewBox="0 0 88 87" fill="none" xmlns="http://www.w3.org/2000/svg">
<line x1="43.5" y1="11" x2="43.5" y2="2.18556e-08" stroke="white"/>
<line x1="43.5" y1="87" x2="43.5" y2="76" stroke="white"/>
<path d="M44 86.5C19.9702 86.5 0.499997 67.2429 0.499998 43.5C0.499999 19.7571 19.9702 0.499997 44 0.499998C68.0298 0.499999 87.5 19.7571 87.5 43.5C87.5 67.2429 68.0298 86.5 44 86.5Z" stroke="white"/>
<line x1="20.4238" y1="21.1319" x2="12.6456" y2="13.3537" stroke="white"/>
<line y1="-0.5" x2="11" y2="-0.5" transform="matrix(0.707107 -0.707107 -0.707107 -0.707107 67.7383 20.7783)" stroke="white"/>
<line x1="77" y1="44.5" x2="88" y2="44.5" stroke="white"/>
<line x1="74.164" y1="74.8721" x2="66.3858" y2="67.0939" stroke="white"/>
<line y1="-0.5" x2="11" y2="-0.5" transform="matrix(0.707107 -0.707107 -0.707107 -0.707107 14 74.5186)" stroke="white"/>
<line x1="1" y1="44.5" x2="12" y2="44.5" stroke="white"/>
</svg>
